<svg xmlns="http://www.w3.org/2000/svg" width="512" height="512" viewBox="0 0 512 512" version="1.1"><path d="M 238 110.507 C 214.196 116.309, 195.683 135.713, 190.953 159.816 C 190.193 163.688, 189.934 169.684, 190.282 175.316 C 191.702 198.261, 204.598 217.461, 225.217 227.328 L 233.934 231.500 233.967 300.378 L 234 369.256 230.159 368.641 C 222.164 367.363, 208.173 362.784, 199.500 358.608 C 174.634 346.633, 162.727 330.134, 160.397 304.423 L 159.724 297 140.711 297 L 121.699 297 122.302 307.250 C 124.856 350.648, 153.324 384.737, 200.030 400.328 C 234.956 411.986, 270.059 412.010, 305 400.397 C 352.597 384.579, 380.481 351.257, 383.632 306.433 L 384.295 297 365.264 297 C 343.761 297, 345.063 296.454, 344.999 305.500 C 344.925 315.884, 339.251 330.602, 331.887 339.514 C 320.743 353, 297.938 364.869, 276.250 368.470 L 272 369.176 272 300.224 L 272 231.272 276.434 229.578 C 282.941 227.093, 292.558 220.587, 298.033 214.966 C 311.047 201.605, 317.845 180.901, 315.077 163.060 C 311.038 137.028, 293.422 117.374, 268.391 110.972 C 259.414 108.676, 246.333 108.476, 238 110.507 M 245.882 148.324 C 236.515 151.818, 230.943 157.832, 228.987 166.558 C 225.806 180.754, 237.320 195.181, 252 195.390 C 262.325 195.537, 271.790 189.533, 275.597 180.422 C 277.388 176.136, 277.402 166.899, 275.625 162.645 C 273.684 158, 268.350 152.219, 263.919 149.959 C 258.861 147.378, 250.459 146.617, 245.882 148.324" stroke="none" fill="#fbfbfb" fill-rule="evenodd"/><path d="M 223.564 1.571 C 188.852 6.187, 151.782 19.277, 122 37.434 C 88.610 57.791, 55.807 90.886, 35.976 124.223 C 19.401 152.086, 7.658 184.601, 2.469 217 C -0.094 233.004, -0.642 269.061, 1.419 286 C 4.800 313.776, 13.005 341.957, 24.834 366.420 C 38.526 394.736, 52.922 415.028, 74.947 437.053 C 108.487 470.593, 146.762 492.583, 191.500 504.016 C 213.899 509.740, 224.583 511.147, 250 511.718 C 283.979 512.482, 306.389 509.201, 337.420 498.918 C 375.107 486.430, 408.263 465.842, 437.053 437.053 C 470.592 403.514, 492.580 365.244, 504.017 320.500 C 507.714 306.034, 511 287.534, 511 281.181 C 511 279.496, 511.450 277.840, 512 277.500 C 512.618 277.118, 513 268.470, 513 254.882 C 513 242.782, 512.638 233.106, 512.196 233.379 C 511.753 233.653, 510.866 229.179, 510.225 223.439 C 506.621 191.190, 492.829 151.955, 474.566 122 C 454.209 88.610, 421.114 55.807, 387.777 35.976 C 359.929 19.410, 327.515 7.699, 295 2.458 C 280.359 0.098, 238.543 -0.421, 223.564 1.571 M 238 110.507 C 214.196 116.309, 195.683 135.713, 190.953 159.816 C 190.193 163.688, 189.934 169.684, 190.282 175.316 C 191.702 198.261, 204.598 217.461, 225.217 227.328 L 233.934 231.500 233.967 300.378 L 234 369.256 230.159 368.641 C 222.164 367.363, 208.173 362.784, 199.500 358.608 C 174.634 346.633, 162.727 330.134, 160.397 304.423 L 159.724 297 140.711 297 L 121.699 297 122.302 307.250 C 124.856 350.648, 153.324 384.737, 200.030 400.328 C 234.956 411.986, 270.059 412.010, 305 400.397 C 352.597 384.579, 380.481 351.257, 383.632 306.433 L 384.295 297 365.264 297 C 343.761 297, 345.063 296.454, 344.999 305.500 C 344.925 315.884, 339.251 330.602, 331.887 339.514 C 320.743 353, 297.938 364.869, 276.250 368.470 L 272 369.176 272 300.224 L 272 231.272 276.434 229.578 C 282.941 227.093, 292.558 220.587, 298.033 214.966 C 311.047 201.605, 317.845 180.901, 315.077 163.060 C 311.038 137.028, 293.422 117.374, 268.391 110.972 C 259.414 108.676, 246.333 108.476, 238 110.507 M 245.882 148.324 C 236.515 151.818, 230.943 157.832, 228.987 166.558 C 225.806 180.754, 237.320 195.181, 252 195.390 C 262.325 195.537, 271.790 189.533, 275.597 180.422 C 277.388 176.136, 277.402 166.899, 275.625 162.645 C 273.684 158, 268.350 152.219, 263.919 149.959 C 258.861 147.378, 250.459 146.617, 245.882 148.324 M 0.428 256 C 0.428 268.375, 0.571 273.438, 0.747 267.250 C 0.922 261.063, 0.922 250.938, 0.747 244.750 C 0.571 238.563, 0.428 243.625, 0.428 256" stroke="none" fill="#1071dd" fill-rule="evenodd"/></svg>