<svg width="6" height="12" viewBox="0 0 6 12" fill="none" xmlns="http://www.w3.org/2000/svg">
<path fill-rule="evenodd" clip-rule="evenodd" d="M0.75 0C0.33579 0 0 0.33579 0 0.75C0 1.16421 0.33579 1.5 0.75 1.5C1.16421 1.5 1.5 1.16421 1.5 0.75C1.5 0.33579 1.16421 0 0.75 0ZM0.75 10.5C0.33579 10.5 0 10.8358 0 11.25C0 11.6642 0.33579 12 0.75 12C1.16421 12 1.5 11.6642 1.5 11.25C1.5 10.8358 1.16421 10.5 0.75 10.5ZM1.5 2.25C1.5 1.83579 1.83579 1.5 2.25 1.5C2.66421 1.5 3 1.83579 3 2.25C3 2.66421 2.66421 3 2.25 3C1.83579 3 1.5 2.66421 1.5 2.25ZM2.25 9C1.83579 9 1.5 9.33585 1.5 9.75C1.5 10.1642 1.83579 10.5 2.25 10.5C2.66421 10.5 3 10.1642 3 9.75C3 9.33585 2.66421 9 2.25 9ZM3 3.75C3 3.33579 3.33579 3 3.75 3C4.16421 3 4.5 3.33579 4.5 3.75C4.5 4.16421 4.16421 4.5 3.75 4.5C3.33579 4.5 3 4.16421 3 3.75ZM3.75 7.5C3.33579 7.5 3 7.83579 3 8.25C3 8.66421 3.33579 9 3.75 9C4.16421 9 4.5 8.66421 4.5 8.25C4.5 7.83579 4.16421 7.5 3.75 7.5ZM4.5 5.25C4.5 4.83579 4.83579 4.5 5.25 4.5C5.66421 4.5 6 4.83579 6 5.25C6 5.66421 5.66421 6 5.25 6C4.83579 6 4.5 5.66421 4.5 5.25ZM5.25 6C5.66421 6 6 6.33579 6 6.75C6 7.16421 5.66421 7.5 5.25 7.5C4.83579 7.5 4.5 7.16421 4.5 6.75C4.5 6.33579 4.83579 6 5.25 6Z" fill="#FCFDFC"/>
</svg>
