<svg width="6" height="12" viewBox="0 0 6 12" fill="none" xmlns="http://www.w3.org/2000/svg">
<path fill-rule="evenodd" clip-rule="evenodd" d="M5.25 12C5.66421 12 6 11.6642 6 11.25C6 10.8358 5.66421 10.5 5.25 10.5C4.83579 10.5 4.5 10.8358 4.5 11.25C4.5 11.6642 4.83579 12 5.25 12ZM5.25 1.5C5.66421 1.5 6 1.16421 6 0.75C6 0.33579 5.66421 0 5.25 0C4.83579 0 4.5 0.33579 4.5 0.75C4.5 1.16421 4.83579 1.5 5.25 1.5ZM4.5 9.75C4.5 10.1642 4.16421 10.5 3.75 10.5C3.33579 10.5 3 10.1642 3 9.75C3 9.33585 3.33579 9 3.75 9C4.16421 9 4.5 9.33585 4.5 9.75ZM3.75 3C4.16421 3 4.5 2.66421 4.5 2.25C4.5 1.83579 4.16421 1.5 3.75 1.5C3.33579 1.5 3 1.83579 3 2.25C3 2.66421 3.33579 3 3.75 3ZM3 8.25C3 8.66421 2.66421 9 2.25 9C1.83579 9 1.5 8.66421 1.5 8.25C1.5 7.83579 1.83579 7.5 2.25 7.5C2.66421 7.5 3 7.83579 3 8.25ZM2.25 4.5C2.66421 4.5 3 4.16421 3 3.75C3 3.33579 2.66421 3 2.25 3C1.83579 3 1.5 3.33579 1.5 3.75C1.5 4.16421 1.83579 4.5 2.25 4.5ZM1.5 6.75C1.5 7.16421 1.16421 7.5 0.75 7.5C0.33579 7.5 0 7.16421 0 6.75C0 6.33579 0.33579 6 0.75 6C1.16421 6 1.5 6.33579 1.5 6.75ZM0.75 6C0.33579 6 0 5.66421 0 5.25C0 4.83579 0.33579 4.5 0.75 4.5C1.16421 4.5 1.5 4.83579 1.5 5.25C1.5 5.66421 1.16421 6 0.75 6Z" fill="#FCFDFC"/>
</svg>
