<svg width="12" height="6" viewBox="0 0 12 6" fill="none" xmlns="http://www.w3.org/2000/svg">
<path fill-rule="evenodd" clip-rule="evenodd" d="M12 0.75C12 0.33579 11.6642 0 11.25 0C10.8358 0 10.5 0.33579 10.5 0.75C10.5 1.16421 10.8358 1.5 11.25 1.5C11.6642 1.5 12 1.16421 12 0.75ZM1.5 0.75C1.5 0.33579 1.16421 0 0.75 0C0.33579 0 0 0.33579 0 0.75C0 1.16421 0.33579 1.5 0.75 1.5C1.16421 1.5 1.5 1.16421 1.5 0.75ZM9.75 1.5C10.1642 1.5 10.5 1.83579 10.5 2.25C10.5 2.66421 10.1642 3 9.75 3C9.33585 3 9 2.66421 9 2.25C9 1.83579 9.33585 1.5 9.75 1.5ZM3 2.25C3 1.83579 2.66421 1.5 2.25 1.5C1.83579 1.5 1.5 1.83579 1.5 2.25C1.5 2.66421 1.83579 3 2.25 3C2.66421 3 3 2.66421 3 2.25ZM8.25 3C8.66421 3 9 3.33579 9 3.75C9 4.16421 8.66421 4.5 8.25 4.5C7.83579 4.5 7.5 4.16421 7.5 3.75C7.5 3.33579 7.83579 3 8.25 3ZM4.5 3.75C4.5 3.33579 4.16421 3 3.75 3C3.33579 3 3 3.33579 3 3.75C3 4.16421 3.33579 4.5 3.75 4.5C4.16421 4.5 4.5 4.16421 4.5 3.75ZM6.75 4.5C7.16421 4.5 7.5 4.83579 7.5 5.25C7.5 5.66421 7.16421 6 6.75 6C6.33579 6 6 5.66421 6 5.25C6 4.83579 6.33579 4.5 6.75 4.5ZM6 5.25C6 5.66421 5.66421 6 5.25 6C4.83579 6 4.5 5.66421 4.5 5.25C4.5 4.83579 4.83579 4.5 5.25 4.5C5.66421 4.5 6 4.83579 6 5.25Z" fill="#FCFDFC"/>
</svg>
