<svg width="12" height="6" viewBox="0 0 12 6" fill="none" xmlns="http://www.w3.org/2000/svg">
<path fill-rule="evenodd" clip-rule="evenodd" d="M0 5.25C0 5.66421 0.33579 6 0.75 6C1.16421 6 1.5 5.66421 1.5 5.25C1.5 4.83579 1.16421 4.5 0.75 4.5C0.33579 4.5 0 4.83579 0 5.25ZM10.5 5.25C10.5 5.66421 10.8358 6 11.25 6C11.6642 6 12 5.66421 12 5.25C12 4.83579 11.6642 4.5 11.25 4.5C10.8358 4.5 10.5 4.83579 10.5 5.25ZM2.25 4.5C1.83579 4.5 1.5 4.16421 1.5 3.75C1.5 3.33579 1.83579 3 2.25 3C2.66421 3 3 3.33579 3 3.75C3 4.16421 2.66421 4.5 2.25 4.5ZM9 3.75C9 4.16421 9.33585 4.5 9.75 4.5C10.1642 4.5 10.5 4.16421 10.5 3.75C10.5 3.33579 10.1642 3 9.75 3C9.33585 3 9 3.33579 9 3.75ZM3.75 3C3.33579 3 3 2.66421 3 2.25C3 1.83579 3.33579 1.5 3.75 1.5C4.16421 1.5 4.5 1.83579 4.5 2.25C4.5 2.66421 4.16421 3 3.75 3ZM7.5 2.25C7.5 2.66421 7.83579 3 8.25 3C8.66421 3 9 2.66421 9 2.25C9 1.83579 8.66421 1.5 8.25 1.5C7.83579 1.5 7.5 1.83579 7.5 2.25ZM5.25 1.5C4.83579 1.5 4.5 1.16421 4.5 0.75C4.5 0.33579 4.83579 0 5.25 0C5.66421 0 6 0.33579 6 0.75C6 1.16421 5.66421 1.5 5.25 1.5ZM6 0.75C6 0.33579 6.33579 0 6.75 0C7.16421 0 7.5 0.33579 7.5 0.75C7.5 1.16421 7.16421 1.5 6.75 1.5C6.33579 1.5 6 1.16421 6 0.75Z" fill="#FCFDFC"/>
</svg>
