<svg width="14" height="14" viewBox="0 0 14 14" fill="none" xmlns="http://www.w3.org/2000/svg">
<path fill-rule="evenodd" clip-rule="evenodd" d="M0.123174 1.31173C-0.0409159 1.14764 -0.0409397 0.881527 0.123174 0.717411C0.287287 0.553296 0.553396 0.55332 0.717486 0.717411C0.881575 0.881503 0.881599 1.14762 0.717486 1.31173C0.553372 1.47585 0.287263 1.47582 0.123174 1.31173ZM1.3118 1.31173C1.14771 1.14764 0.881599 1.14762 0.717486 1.31173C0.553372 1.47585 0.553396 1.74196 0.717486 1.90605C0.553396 1.74196 0.287287 1.74194 0.123174 1.90605C-0.0409397 2.07017 -0.0409159 2.33628 0.123174 2.50037C0.287263 2.66446 0.553372 2.66449 0.717486 2.50037C0.881599 2.33626 0.881575 2.07014 0.717486 1.90605C0.881575 2.07014 1.14768 2.07017 1.3118 1.90605C1.14768 2.07017 1.14768 2.33626 1.3118 2.50037C1.47591 2.66449 1.742 2.66449 1.90611 2.50037C1.742 2.66449 1.742 2.93057 1.90611 3.09469C2.07022 3.25881 2.33631 3.25881 2.50042 3.09469C2.33631 3.25881 2.33631 3.52489 2.50042 3.68901C2.66454 3.85313 2.93062 3.85313 3.09473 3.68901C2.93062 3.85313 2.93062 4.11921 3.09473 4.28333C3.25885 4.44745 3.52493 4.44745 3.68905 4.28333C3.52493 4.44745 3.52493 4.71353 3.68905 4.87765C3.85316 5.04176 4.11925 5.04176 4.28336 4.87765C4.11925 5.04176 4.11925 5.30785 4.28336 5.47197C4.44747 5.63608 4.71356 5.63608 4.87767 5.47197C5.04178 5.30785 5.04178 5.04176 4.87767 4.87765C5.04178 5.04176 5.30787 5.04176 5.47198 4.87765C5.6361 4.71353 5.6361 4.44745 5.47198 4.28333C5.30787 4.11921 5.04178 4.11921 4.87767 4.28333C5.04178 4.11921 5.04178 3.85313 4.87767 3.68901C4.71356 3.52489 4.44747 3.52489 4.28336 3.68901C4.44747 3.52489 4.44747 3.25881 4.28336 3.09469C4.11925 2.93057 3.85316 2.93057 3.68905 3.09469C3.85316 2.93057 3.85316 2.66449 3.68905 2.50037C3.52493 2.33626 3.25885 2.33626 3.09473 2.50037C3.25885 2.33626 3.25885 2.07017 3.09473 1.90605C2.93062 1.74194 2.66454 1.74194 2.50042 1.90605C2.66454 1.74194 2.66454 1.47585 2.50042 1.31173C2.33631 1.14762 2.07022 1.14762 1.90611 1.31173C2.07022 1.14762 2.0702 0.881503 1.90611 0.717411C2.0702 0.881503 2.33631 0.881527 2.50042 0.717411C2.66454 0.553296 2.66451 0.287183 2.50042 0.123092C2.33633 -0.0409999 2.07022 -0.0410236 1.90611 0.123092C1.742 0.287207 1.74202 0.55332 1.90611 0.717411C1.74202 0.55332 1.47591 0.553296 1.3118 0.717411C1.47591 0.553296 1.47589 0.287183 1.3118 0.123092C1.14771 -0.0409999 0.881599 -0.0410236 0.717486 0.123092C0.553372 0.287207 0.553396 0.55332 0.717486 0.717411C0.881575 0.881503 1.14768 0.881527 1.3118 0.717411C1.14768 0.881527 1.14771 1.14764 1.3118 1.31173ZM1.90611 1.90605C1.742 1.74194 1.47591 1.74194 1.3118 1.90605C1.47591 1.74194 1.47589 1.47582 1.3118 1.31173C1.47589 1.47582 1.742 1.47585 1.90611 1.31173C1.742 1.47585 1.742 1.74194 1.90611 1.90605ZM2.50042 2.50037C2.33631 2.33626 2.07022 2.33626 1.90611 2.50037C2.07022 2.33626 2.07022 2.07017 1.90611 1.90605C2.07022 2.07017 2.33631 2.07017 2.50042 1.90605C2.33631 2.07017 2.33631 2.33626 2.50042 2.50037ZM3.09473 3.09469C2.93062 2.93057 2.66454 2.93057 2.50042 3.09469C2.66454 2.93057 2.66454 2.66449 2.50042 2.50037C2.66454 2.66449 2.93062 2.66449 3.09473 2.50037C2.93062 2.66449 2.93062 2.93057 3.09473 3.09469ZM3.68905 3.68901C3.52493 3.52489 3.25885 3.52489 3.09473 3.68901C3.25885 3.52489 3.25885 3.25881 3.09473 3.09469C3.25885 3.25881 3.52493 3.25881 3.68905 3.09469C3.52493 3.25881 3.52493 3.52489 3.68905 3.68901ZM4.28336 4.28333C4.11925 4.11921 3.85316 4.11921 3.68905 4.28333C3.85316 4.11921 3.85316 3.85313 3.68905 3.68901C3.85316 3.85313 4.11925 3.85313 4.28336 3.68901C4.11925 3.85313 4.11925 4.11921 4.28336 4.28333ZM4.28336 4.28333C4.44747 4.44745 4.71356 4.44745 4.87767 4.28333C4.71356 4.44745 4.71356 4.71353 4.87767 4.87765C4.71356 4.71353 4.44747 4.71353 4.28336 4.87765C4.44747 4.71353 4.44747 4.44745 4.28336 4.28333ZM0.123174 4.87765C-0.0409397 4.71353 -0.0409397 4.44745 0.123174 4.28333C0.287287 4.11921 0.553372 4.11921 0.717486 4.28333C0.881599 4.44745 0.881599 4.71353 0.717486 4.87765C0.553372 5.04176 0.287287 5.04176 0.123174 4.87765ZM4.28336 0.123092C4.11927 0.287183 4.11925 0.553296 4.28336 0.717411C4.44747 0.881527 4.71358 0.881503 4.87767 0.717411C5.04176 0.55332 5.04178 0.287207 4.87767 0.123092C4.71356 -0.0410236 4.44745 -0.0409999 4.28336 0.123092ZM0.123174 3.68901C-0.0409397 3.52489 -0.0409397 3.25881 0.123174 3.09469C0.287287 2.93057 0.553372 2.93057 0.717486 3.09469C0.881599 3.25881 0.881599 3.52489 0.717486 3.68901C0.553372 3.85313 0.287287 3.85313 0.123174 3.68901ZM3.09473 0.123092C2.93064 0.287183 2.93062 0.553296 3.09473 0.717411C3.25885 0.881527 3.52496 0.881503 3.68905 0.717411C3.85314 0.55332 3.85316 0.287207 3.68905 0.123092C3.52493 -0.0410236 3.25882 -0.0409999 3.09473 0.123092Z" fill="#FCFDFC"/>
<path fill-rule="evenodd" clip-rule="evenodd" d="M13.8768 12.6883C14.0409 12.8524 14.0409 13.1185 13.8768 13.2826C13.7127 13.4467 13.4466 13.4467 13.2825 13.2826C13.1184 13.1185 13.1184 12.8524 13.2825 12.6883C13.4466 12.5242 13.7127 12.5242 13.8768 12.6883ZM12.6882 12.6883C12.8523 12.8524 13.1184 12.8524 13.2825 12.6883C13.4466 12.5242 13.4466 12.258 13.2825 12.0939C13.4466 12.258 13.7127 12.2581 13.8768 12.0939C14.0409 11.9298 14.0409 11.6637 13.8768 11.4996C13.7127 11.3355 13.4466 11.3355 13.2825 11.4996C13.1184 11.6637 13.1184 11.9299 13.2825 12.0939C13.1184 11.9299 12.8523 11.9298 12.6882 12.0939C12.8523 11.9298 12.8523 11.6637 12.6882 11.4996C12.5241 11.3355 12.258 11.3355 12.0939 11.4996C12.258 11.3355 12.258 11.0694 12.0939 10.9053C11.9298 10.7412 11.6637 10.7412 11.4996 10.9053C11.6637 10.7412 11.6637 10.4751 11.4996 10.311C11.3355 10.1469 11.0694 10.1469 10.9053 10.311C11.0694 10.1469 11.0694 9.88079 10.9053 9.71667C10.7412 9.55256 10.4751 9.55256 10.311 9.71667C10.4751 9.55256 10.4751 9.28647 10.311 9.12235C10.1468 8.95824 9.88075 8.95824 9.71664 9.12235C9.88075 8.95824 9.88075 8.69215 9.71664 8.52803C9.55253 8.36392 9.28644 8.36392 9.12233 8.52803C8.95822 8.69215 8.95822 8.95824 9.12233 9.12235C8.95822 8.95824 8.69213 8.95823 8.52802 9.12235C8.3639 9.28647 8.3639 9.55256 8.52802 9.71667C8.69213 9.88079 8.95821 9.88079 9.12233 9.71667C8.95821 9.88079 8.95821 10.1469 9.12233 10.311C9.28644 10.4751 9.55253 10.4751 9.71664 10.311C9.55253 10.4751 9.55253 10.7412 9.71664 10.9053C9.88075 11.0694 10.1468 11.0694 10.311 10.9053C10.1468 11.0694 10.1468 11.3355 10.311 11.4996C10.4751 11.6637 10.7412 11.6637 10.9053 11.4996C10.7412 11.6637 10.7412 11.9298 10.9053 12.0939C11.0694 12.2581 11.3355 12.2581 11.4996 12.0939C11.3355 12.2581 11.3355 12.5242 11.4996 12.6883C11.6637 12.8524 11.9298 12.8524 12.0939 12.6883C11.9298 12.8524 11.9298 13.1185 12.0939 13.2826C11.9298 13.1185 11.6637 13.1185 11.4996 13.2826C11.3355 13.4467 11.3355 13.7128 11.4996 13.8769C11.6637 14.041 11.9298 14.041 12.0939 13.8769C12.258 13.7128 12.258 13.4467 12.0939 13.2826C12.258 13.4467 12.5241 13.4467 12.6882 13.2826C12.5241 13.4467 12.5241 13.7128 12.6882 13.8769C12.8523 14.041 13.1184 14.041 13.2825 13.8769C13.4466 13.7128 13.4466 13.4467 13.2825 13.2826C13.1184 13.1185 12.8523 13.1185 12.6882 13.2826C12.8523 13.1185 12.8523 12.8524 12.6882 12.6883ZM12.0939 12.0939C12.258 12.2581 12.5241 12.2581 12.6882 12.0939C12.5241 12.2581 12.5241 12.5242 12.6882 12.6883C12.5241 12.5242 12.258 12.5242 12.0939 12.6883C12.258 12.5242 12.258 12.2581 12.0939 12.0939ZM11.4996 11.4996C11.6637 11.6637 11.9298 11.6637 12.0939 11.4996C11.9298 11.6637 11.9298 11.9298 12.0939 12.0939C11.9298 11.9298 11.6637 11.9298 11.4996 12.0939C11.6637 11.9298 11.6637 11.6637 11.4996 11.4996ZM10.9053 10.9053C11.0694 11.0694 11.3355 11.0694 11.4996 10.9053C11.3355 11.0694 11.3355 11.3355 11.4996 11.4996C11.3355 11.3355 11.0694 11.3355 10.9053 11.4996C11.0694 11.3355 11.0694 11.0694 10.9053 10.9053ZM10.311 10.311C10.4751 10.4751 10.7412 10.4751 10.9053 10.311C10.7412 10.4751 10.7412 10.7412 10.9053 10.9053C10.7412 10.7412 10.4751 10.7412 10.311 10.9053C10.4751 10.7412 10.4751 10.4751 10.311 10.311ZM9.71664 9.71667C9.88075 9.88079 10.1468 9.88079 10.311 9.71667C10.1468 9.88079 10.1468 10.1469 10.311 10.311C10.1468 10.1469 9.88075 10.1469 9.71664 10.311C9.88075 10.1469 9.88075 9.88079 9.71664 9.71667ZM9.71664 9.71667C9.55253 9.55256 9.28644 9.55256 9.12233 9.71667C9.28644 9.55256 9.28644 9.28647 9.12233 9.12235C9.28644 9.28647 9.55253 9.28647 9.71664 9.12235C9.55253 9.28647 9.55253 9.55256 9.71664 9.71667ZM13.8768 9.12235C14.0409 9.28647 14.0409 9.55256 13.8768 9.71667C13.7127 9.88079 13.4466 9.88079 13.2825 9.71667C13.1184 9.55256 13.1184 9.28647 13.2825 9.12235C13.4466 8.95824 13.7127 8.95824 13.8768 9.12235ZM9.71664 13.8769C9.88073 13.7128 9.88075 13.4467 9.71664 13.2826C9.55253 13.1185 9.28642 13.1185 9.12233 13.2826C8.95824 13.4467 8.95821 13.7128 9.12233 13.8769C9.28644 14.041 9.55255 14.041 9.71664 13.8769ZM13.8768 10.311C14.0409 10.4751 14.0409 10.7412 13.8768 10.9053C13.7127 11.0694 13.4466 11.0694 13.2825 10.9053C13.1184 10.7412 13.1184 10.4751 13.2825 10.311C13.4466 10.1469 13.7127 10.1469 13.8768 10.311ZM10.9053 13.8769C11.0694 13.7128 11.0694 13.4467 10.9053 13.2826C10.7412 13.1185 10.475 13.1185 10.311 13.2826C10.1469 13.4467 10.1468 13.7128 10.311 13.8769C10.4751 14.041 10.7412 14.041 10.9053 13.8769Z" fill="#FCFDFC"/>
<path fill-rule="evenodd" clip-rule="evenodd" d="M12.6883 0.123087C12.8524 -0.0410051 13.1185 -0.0410289 13.2826 0.123087C13.4467 0.287202 13.4467 0.553315 13.2826 0.717406C13.1185 0.881498 12.8524 0.881522 12.6883 0.717406C12.5242 0.553291 12.5242 0.287178 12.6883 0.123087ZM12.6883 1.31173C12.8524 1.14763 12.8524 0.881522 12.6883 0.717406C12.5242 0.553291 12.2581 0.553315 12.094 0.717406C12.2581 0.553315 12.2581 0.287202 12.094 0.123087C11.9299 -0.0410289 11.6638 -0.0410051 11.4997 0.123087C11.3356 0.287178 11.3356 0.553291 11.4997 0.717406C11.6638 0.881522 11.9299 0.881498 12.094 0.717406C11.9299 0.881498 11.9299 1.14761 12.094 1.31173C11.9299 1.14761 11.6638 1.14761 11.4997 1.31173C11.3356 1.47584 11.3356 1.74193 11.4997 1.90605C11.3356 1.74193 11.0695 1.74193 10.9054 1.90605C10.7413 2.07016 10.7413 2.33625 10.9054 2.50037C10.7413 2.33625 10.4752 2.33625 10.3111 2.50037C10.1469 2.66448 10.1469 2.93057 10.3111 3.09469C10.1469 2.93057 9.88085 2.93057 9.71674 3.09469C9.55263 3.2588 9.55263 3.52489 9.71674 3.689C9.55263 3.52489 9.28654 3.52489 9.12243 3.689C8.95831 3.85312 8.95831 4.11921 9.12243 4.28332C8.95831 4.11921 8.69223 4.11921 8.52811 4.28332C8.364 4.44744 8.364 4.71353 8.52811 4.87764C8.69223 5.04176 8.95831 5.04176 9.12243 4.87764C8.95831 5.04176 8.95831 5.30785 9.12243 5.47196C9.28654 5.63608 9.55263 5.63608 9.71674 5.47196C9.88085 5.30785 9.88085 5.04176 9.71674 4.87764C9.88085 5.04176 10.1469 5.04176 10.3111 4.87764C10.4752 4.71353 10.4752 4.44744 10.3111 4.28332C10.4752 4.44744 10.7413 4.44744 10.9054 4.28332C11.0695 4.11921 11.0695 3.85312 10.9054 3.689C11.0695 3.85312 11.3356 3.85312 11.4997 3.689C11.6638 3.52489 11.6638 3.2588 11.4997 3.09469C11.6638 3.2588 11.9299 3.2588 12.094 3.09469C12.2581 2.93057 12.2581 2.66448 12.094 2.50037C12.2581 2.66448 12.5242 2.66448 12.6883 2.50037C12.8524 2.33625 12.8524 2.07016 12.6883 1.90605C12.8524 2.07016 13.1185 2.07014 13.2826 1.90605C13.1185 2.07014 13.1185 2.33625 13.2826 2.50037C13.4467 2.66448 13.7128 2.66446 13.8769 2.50037C14.041 2.33627 14.041 2.07016 13.8769 1.90605C13.7128 1.74193 13.4467 1.74195 13.2826 1.90605C13.4467 1.74195 13.4467 1.47584 13.2826 1.31173C13.4467 1.47584 13.7128 1.47582 13.8769 1.31173C14.041 1.14763 14.041 0.881522 13.8769 0.717406C13.7128 0.553291 13.4467 0.553315 13.2826 0.717406C13.1185 0.881498 13.1185 1.14761 13.2826 1.31173C13.1185 1.14761 12.8524 1.14763 12.6883 1.31173ZM12.094 1.90605C12.2581 1.74193 12.2581 1.47584 12.094 1.31173C12.2581 1.47584 12.5242 1.47582 12.6883 1.31173C12.5242 1.47582 12.5242 1.74193 12.6883 1.90605C12.5242 1.74193 12.2581 1.74193 12.094 1.90605ZM11.4997 2.50037C11.6638 2.33625 11.6638 2.07016 11.4997 1.90605C11.6638 2.07016 11.9299 2.07016 12.094 1.90605C11.9299 2.07016 11.9299 2.33625 12.094 2.50037C11.9299 2.33625 11.6638 2.33625 11.4997 2.50037ZM10.9054 3.09469C11.0695 2.93057 11.0695 2.66448 10.9054 2.50037C11.0695 2.66448 11.3356 2.66448 11.4997 2.50037C11.3356 2.66448 11.3356 2.93057 11.4997 3.09469C11.3356 2.93057 11.0695 2.93057 10.9054 3.09469ZM10.3111 3.689C10.4752 3.52489 10.4752 3.2588 10.3111 3.09469C10.4752 3.2588 10.7413 3.2588 10.9054 3.09469C10.7413 3.2588 10.7413 3.52489 10.9054 3.689C10.7413 3.52489 10.4752 3.52489 10.3111 3.689ZM9.71674 4.28332C9.88085 4.11921 9.88085 3.85312 9.71674 3.689C9.88085 3.85312 10.1469 3.85312 10.3111 3.689C10.1469 3.85312 10.1469 4.11921 10.3111 4.28332C10.1469 4.11921 9.88085 4.11921 9.71674 4.28332ZM9.71674 4.28332C9.55263 4.44744 9.55263 4.71353 9.71674 4.87764C9.55263 4.71353 9.28654 4.71353 9.12243 4.87764C9.28654 4.71353 9.28654 4.44744 9.12243 4.28332C9.28654 4.44744 9.55263 4.44744 9.71674 4.28332ZM9.12243 0.123087C9.28654 -0.0410289 9.55263 -0.0410289 9.71674 0.123087C9.88085 0.287202 9.88085 0.553291 9.71674 0.717406C9.55263 0.881522 9.28654 0.881522 9.12243 0.717406C8.95831 0.553291 8.95831 0.287202 9.12243 0.123087ZM13.8769 4.28332C13.7128 4.11923 13.4467 4.11921 13.2826 4.28332C13.1185 4.44744 13.1185 4.71355 13.2826 4.87764C13.4467 5.04174 13.7128 5.04176 13.8769 4.87764C14.041 4.71353 14.041 4.44742 13.8769 4.28332ZM10.3111 0.123087C10.4752 -0.0410289 10.7413 -0.0410289 10.9054 0.123087C11.0695 0.287202 11.0695 0.553291 10.9054 0.717406C10.7413 0.881522 10.4752 0.881522 10.3111 0.717406C10.1469 0.553291 10.1469 0.287202 10.3111 0.123087ZM13.8769 3.09469C13.7128 2.93059 13.4467 2.93057 13.2826 3.09469C13.1185 3.2588 13.1185 3.52491 13.2826 3.689C13.4467 3.8531 13.7128 3.85312 13.8769 3.689C14.041 3.52489 14.041 3.25878 13.8769 3.09469Z" fill="#FCFDFC"/>
<path fill-rule="evenodd" clip-rule="evenodd" d="M1.3117 13.8769C1.14761 14.041 0.881502 14.041 0.717388 13.8769C0.553275 13.7128 0.553299 13.4467 0.717388 13.2826C0.881478 13.1185 1.14759 13.1185 1.3117 13.2826C1.47581 13.4467 1.47579 13.7128 1.3117 13.8769ZM1.3117 12.6883C1.14761 12.8524 1.14759 13.1185 1.3117 13.2826C1.47581 13.4467 1.74192 13.4467 1.90601 13.2826C1.74192 13.4467 1.7419 13.7128 1.90601 13.8769C2.07013 14.041 2.33624 14.041 2.50032 13.8769C2.66441 13.7128 2.66444 13.4467 2.50032 13.2826C2.33621 13.1185 2.0701 13.1185 1.90601 13.2826C2.0701 13.1185 2.07013 12.8524 1.90601 12.6883C2.07013 12.8524 2.33621 12.8524 2.50032 12.6883C2.66444 12.5242 2.66444 12.2581 2.50032 12.094C2.66444 12.2581 2.93052 12.2581 3.09464 12.094C3.25875 11.9298 3.25875 11.6638 3.09464 11.4996C3.25875 11.6638 3.52484 11.6638 3.68895 11.4996C3.85306 11.3355 3.85306 11.0694 3.68895 10.9053C3.85306 11.0694 4.11915 11.0694 4.28326 10.9053C4.44737 10.7412 4.44737 10.4751 4.28326 10.311C4.44737 10.4751 4.71346 10.4751 4.87757 10.311C5.04169 10.1469 5.04169 9.88079 4.87757 9.71668C5.04169 9.88079 5.30777 9.88079 5.47189 9.71668C5.636 9.55256 5.636 9.28647 5.47189 9.12236C5.30777 8.95824 5.04169 8.95824 4.87757 9.12236C5.04169 8.95824 5.04169 8.69215 4.87757 8.52804C4.71346 8.36392 4.44737 8.36392 4.28326 8.52804C4.11915 8.69215 4.11915 8.95824 4.28326 9.12236C4.11915 8.95824 3.85306 8.95824 3.68895 9.12236C3.52484 9.28647 3.52484 9.55256 3.68895 9.71668C3.52484 9.55256 3.25875 9.55256 3.09464 9.71668C2.93052 9.88079 2.93052 10.1469 3.09464 10.311C2.93052 10.1469 2.66444 10.1469 2.50032 10.311C2.33621 10.4751 2.33621 10.7412 2.50032 10.9053C2.33621 10.7412 2.07013 10.7412 1.90601 10.9053C1.7419 11.0694 1.7419 11.3355 1.90601 11.4996C1.7419 11.3355 1.47581 11.3355 1.3117 11.4996C1.14759 11.6637 1.14759 11.9298 1.3117 12.094C1.14759 11.9298 0.881478 11.9299 0.717388 12.094C0.881478 11.9299 0.881502 11.6637 0.717388 11.4996C0.553275 11.3355 0.287166 11.3355 0.123076 11.4996C-0.0410134 11.6637 -0.0410372 11.9298 0.123076 12.094C0.28719 12.2581 0.553299 12.258 0.717388 12.094C0.553299 12.258 0.553275 12.5242 0.717388 12.6883C0.553275 12.5242 0.287166 12.5242 0.123076 12.6883C-0.0410135 12.8524 -0.0410373 13.1185 0.123076 13.2826C0.287189 13.4467 0.553299 13.4467 0.717388 13.2826C0.881478 13.1185 0.881502 12.8524 0.717388 12.6883C0.881502 12.8524 1.14761 12.8524 1.3117 12.6883ZM1.90601 12.094C1.7419 12.2581 1.7419 12.5242 1.90601 12.6883C1.7419 12.5242 1.47579 12.5242 1.3117 12.6883C1.47579 12.5242 1.47581 12.2581 1.3117 12.094C1.47581 12.2581 1.7419 12.2581 1.90601 12.094ZM2.50032 11.4996C2.33621 11.6637 2.33621 11.9298 2.50032 12.094C2.33621 11.9298 2.07013 11.9298 1.90601 12.094C2.07013 11.9298 2.07013 11.6637 1.90601 11.4996C2.07013 11.6637 2.33621 11.6637 2.50032 11.4996ZM3.09464 10.9053C2.93052 11.0694 2.93052 11.3355 3.09464 11.4996C2.93052 11.3355 2.66444 11.3355 2.50032 11.4996C2.66444 11.3355 2.66444 11.0694 2.50032 10.9053C2.66444 11.0694 2.93052 11.0694 3.09464 10.9053ZM3.68895 10.311C3.52484 10.4751 3.52484 10.7412 3.68895 10.9053C3.52484 10.7412 3.25875 10.7412 3.09464 10.9053C3.25875 10.7412 3.25875 10.4751 3.09464 10.311C3.25875 10.4751 3.52484 10.4751 3.68895 10.311ZM4.28326 9.71668C4.11915 9.88079 4.11915 10.1469 4.28326 10.311C4.11915 10.1469 3.85306 10.1469 3.68895 10.311C3.85306 10.1469 3.85306 9.88079 3.68895 9.71668C3.85306 9.88079 4.11915 9.88079 4.28326 9.71668ZM4.28326 9.71668C4.44737 9.55256 4.44737 9.28647 4.28326 9.12236C4.44737 9.28647 4.71346 9.28647 4.87757 9.12236C4.71346 9.28647 4.71346 9.55256 4.87757 9.71668C4.71346 9.55256 4.44737 9.55256 4.28326 9.71668ZM4.87757 13.8769C4.71346 14.041 4.44737 14.041 4.28326 13.8769C4.11915 13.7128 4.11915 13.4467 4.28326 13.2826C4.44737 13.1185 4.71346 13.1185 4.87757 13.2826C5.04169 13.4467 5.04169 13.7128 4.87757 13.8769ZM0.123076 9.71668C0.287166 9.88077 0.553275 9.88079 0.717389 9.71668C0.881502 9.55256 0.881478 9.28645 0.717389 9.12236C0.553299 8.95826 0.28719 8.95824 0.123076 9.12236C-0.0410369 9.28647 -0.0410132 9.55258 0.123076 9.71668ZM3.68895 13.8769C3.52484 14.041 3.25875 14.041 3.09464 13.8769C2.93052 13.7128 2.93052 13.4467 3.09464 13.2826C3.25875 13.1185 3.52484 13.1185 3.68895 13.2826C3.85306 13.4467 3.85306 13.7128 3.68895 13.8769ZM0.123076 10.9053C0.287166 11.0694 0.553275 11.0694 0.717388 10.9053C0.881502 10.7412 0.881478 10.4751 0.717389 10.311C0.553299 10.1469 0.28719 10.1469 0.123076 10.311C-0.041037 10.4751 -0.0410133 10.7412 0.123076 10.9053Z" fill="#FCFDFC"/>
</svg>
