<svg width="20" height="18" viewBox="0 0 20 18" fill="none" xmlns="http://www.w3.org/2000/svg">
<path d="M9.94354 15.2784C11.724 15.2784 13.4315 14.5712 14.6904 13.3122C15.9493 12.0533 16.6566 10.3458 16.6566 8.56536C16.6566 6.78495 15.9493 5.07745 14.6904 3.81851C13.4315 2.55956 11.724 1.85229 9.94354 1.85229C8.16312 1.85229 6.45563 2.55956 5.19668 3.81851C3.93774 5.07745 3.23047 6.78495 3.23047 8.56536C3.23047 10.3458 3.93774 12.0533 5.19668 13.3122C6.45563 14.5712 8.16312 15.2784 9.94354 15.2784Z" fill="#FFD21E"/>
<path d="M16.6559 8.56539C16.6559 6.78497 15.9486 5.07747 14.6897 3.81853C13.4307 2.55958 11.7232 1.85232 9.94283 1.85232C8.16241 1.85232 6.45492 2.55958 5.19597 3.81853C3.93703 5.07747 3.22976 6.78497 3.22976 8.56539C3.22976 10.3458 3.93703 12.0533 5.19597 13.3122C6.45492 14.5712 8.16241 15.2785 9.94283 15.2785C11.7232 15.2785 13.4307 14.5712 14.6897 13.3122C15.9486 12.0533 16.6559 10.3458 16.6559 8.56539ZM2.45703 8.56539C2.45703 7.58234 2.65066 6.60891 3.02685 5.7007C3.40305 4.79248 3.95445 3.96725 4.64957 3.27213C5.34469 2.57701 6.16992 2.02561 7.07814 1.64941C7.98636 1.27322 8.95978 1.07959 9.94283 1.07959C10.9259 1.07959 11.8993 1.27322 12.8075 1.64941C13.7157 2.02561 14.541 2.57701 15.2361 3.27213C15.9312 3.96725 16.4826 4.79248 16.8588 5.7007C17.235 6.60891 17.4286 7.58234 17.4286 8.56539C17.4286 10.5507 16.6399 12.4548 15.2361 13.8586C13.8322 15.2625 11.9282 16.0512 9.94283 16.0512C7.95747 16.0512 6.05343 15.2625 4.64957 13.8586C3.24571 12.4548 2.45703 10.5507 2.45703 8.56539Z" fill="#FF9D0B"/>
<path d="M12.1242 6.73976C12.3715 6.82476 12.4681 7.33089 12.7173 7.19953C12.886 7.10994 13.0244 6.97232 13.1149 6.80407C13.2055 6.63583 13.2441 6.44452 13.2259 6.25433C13.2076 6.06415 13.1334 5.88364 13.0126 5.73563C12.8918 5.58762 12.7298 5.47876 12.5472 5.42282C12.3645 5.36688 12.1693 5.36638 11.9863 5.42136C11.8034 5.47635 11.6408 5.58437 11.5192 5.73174C11.3977 5.87912 11.3225 6.05925 11.3033 6.24933C11.2841 6.43942 11.3217 6.63093 11.4114 6.79964C11.5292 7.0218 11.904 6.66055 12.1262 6.73782L12.1242 6.73976ZM7.57479 6.73976C7.32751 6.82476 7.22899 7.33089 6.98172 7.19953C6.81297 7.10994 6.67459 6.97232 6.58406 6.80407C6.49354 6.63583 6.45494 6.44452 6.47315 6.25433C6.49136 6.06415 6.56556 5.88364 6.68637 5.73563C6.80718 5.58762 6.96917 5.47876 7.15185 5.42282C7.33453 5.36688 7.52969 5.36638 7.71266 5.42136C7.89563 5.47635 8.05818 5.58437 8.17976 5.73174C8.30134 5.87912 8.37648 6.05925 8.39568 6.24933C8.41488 6.43942 8.37728 6.63093 8.28763 6.79964C8.16979 7.0218 7.79308 6.66055 7.57285 6.73782L7.57479 6.73976Z" fill="#3A3B45"/>
<path d="M9.89615 11.3742C11.7951 11.3742 12.4075 9.68197 12.4075 8.81265C12.4075 8.36061 12.1042 8.50356 11.6174 8.74311C11.1673 8.96527 10.5626 9.27243 9.89808 9.27243C8.50911 9.27243 7.38672 7.94334 7.38672 8.81265C7.38672 9.68197 7.99717 11.3742 9.89808 11.3742H9.89615Z" fill="#FF323D"/>
<path fill-rule="evenodd" clip-rule="evenodd" d="M8.43952 10.9318C8.54145 10.7247 8.68497 10.5408 8.86113 10.3915C9.03728 10.2423 9.2423 10.131 9.46338 10.0645C9.54065 10.0413 9.61986 10.1746 9.70293 10.3117C9.7802 10.4431 9.86134 10.5764 9.94247 10.5764C10.0294 10.5764 10.1163 10.445 10.1994 10.3156C10.2863 10.1804 10.3713 10.049 10.4544 10.0741C10.8694 10.2059 11.2162 10.4951 11.4203 10.8797C12.1409 10.3117 12.4055 9.38445 12.4055 8.81263C12.4055 8.36059 12.1022 8.50354 11.6154 8.74309L11.5884 8.75661C11.1421 8.97877 10.5471 9.27241 9.89418 9.27241C9.24122 9.27241 8.64815 8.97877 8.19997 8.75661C7.6977 8.50741 7.38281 8.35093 7.38281 8.81263C7.38281 9.40184 7.66486 10.3697 8.43952 10.9318Z" fill="#3A3B45"/>
<path d="M14.4838 7.64777C14.6503 7.64777 14.81 7.58162 14.9278 7.46388C15.0455 7.34614 15.1116 7.18644 15.1116 7.01993C15.1116 6.85342 15.0455 6.69372 14.9278 6.57598C14.81 6.45824 14.6503 6.39209 14.4838 6.39209C14.3173 6.39209 14.1576 6.45824 14.0399 6.57598C13.9221 6.69372 13.856 6.85342 13.856 7.01993C13.856 7.18644 13.9221 7.34614 14.0399 7.46388C14.1576 7.58162 14.3173 7.64777 14.4838 7.64777ZM5.50085 7.64777C5.66737 7.64777 5.82706 7.58162 5.9448 7.46388C6.06255 7.34614 6.12869 7.18644 6.12869 7.01993C6.12869 6.85342 6.06255 6.69372 5.9448 6.57598C5.82706 6.45824 5.66737 6.39209 5.50085 6.39209C5.33434 6.39209 5.17465 6.45824 5.0569 6.57598C4.93916 6.69372 4.87301 6.85342 4.87301 7.01993C4.87301 7.18644 4.93916 7.34614 5.0569 7.46388C5.17465 7.58162 5.33434 7.64777 5.50085 7.64777ZM4.20847 9.77277C3.89551 9.77277 3.61733 9.90027 3.42222 10.134C3.25584 10.3395 3.16513 10.596 3.16528 10.8604C3.04365 10.8238 2.91752 10.8043 2.79051 10.8024C2.49108 10.8024 2.22062 10.9164 2.02937 11.1231C1.85875 11.3003 1.75117 11.5287 1.72324 11.7731C1.69531 12.0175 1.74858 12.2643 1.87483 12.4754C1.70386 12.615 1.58257 12.806 1.52903 13.0202C1.48267 13.194 1.43631 13.5611 1.68358 13.9358C1.59088 14.0784 1.53572 14.242 1.52323 14.4115C1.51073 14.5811 1.5413 14.751 1.6121 14.9056C1.80915 15.3538 2.30176 15.7054 3.25801 16.084C3.85108 16.3197 4.39585 16.4704 4.39972 16.4723C5.0879 16.663 5.79723 16.7668 6.51119 16.7814C7.64324 16.7814 8.45267 16.4337 8.91824 15.7498C9.66779 14.6506 9.56154 13.6441 8.58983 12.6744C8.05472 12.1373 7.69733 11.3472 7.62392 11.1733C7.47324 10.6595 7.07529 10.0877 6.41653 10.0877C6.24128 10.0904 6.06922 10.135 5.91466 10.2177C5.7601 10.3003 5.62751 10.4187 5.5279 10.5629C5.33472 10.3195 5.1454 10.1282 4.9754 10.0181C4.74854 9.86454 4.48234 9.77938 4.20847 9.77277ZM4.20847 10.5455C4.30699 10.5455 4.42869 10.588 4.56006 10.6711C4.97347 10.9338 5.76744 12.2996 6.05915 12.8308C6.15574 13.0086 6.32381 13.0839 6.47256 13.0839C6.77199 13.0839 7.00381 12.7883 6.50153 12.4116C5.74426 11.8456 6.00892 10.9203 6.37017 10.8642C6.38563 10.8604 6.40301 10.8604 6.41653 10.8604C6.74494 10.8604 6.88983 11.4264 6.88983 11.4264C6.88983 11.4264 7.31483 12.4928 8.04506 13.223C8.77335 13.9513 8.81199 14.5366 8.28074 15.3152C7.91756 15.8464 7.22403 16.0067 6.51119 16.0067C5.77517 16.0067 5.0179 15.8329 4.59483 15.7247C4.57358 15.7189 1.99653 14.9906 2.32301 14.3724C2.3771 14.2681 2.4679 14.2256 2.58187 14.2256C3.04165 14.2256 3.87619 14.9095 4.23744 14.9095C4.31665 14.9095 4.37267 14.8766 4.39778 14.7936C4.5504 14.243 2.06801 14.0112 2.27665 13.2153C2.31528 13.0742 2.41381 13.0182 2.55483 13.0182C3.16142 13.0182 4.52528 14.0865 4.81119 14.0865C4.83244 14.0865 4.84983 14.0807 4.85756 14.0672C5.00051 13.8354 4.92131 13.6731 3.91097 13.0627C2.90449 12.4522 2.19551 12.0852 2.59733 11.6466C2.64369 11.5964 2.70937 11.5732 2.79051 11.5732C3.4029 11.5732 4.84983 12.8907 4.84983 12.8907C4.84983 12.8907 5.24006 13.2964 5.47767 13.2964C5.53176 13.2964 5.57813 13.2771 5.60903 13.223C5.77517 12.941 4.05199 11.635 3.9554 11.0961C3.88972 10.729 4.00176 10.5455 4.20847 10.5455Z" fill="#FF9D0B"/>
<path d="M8.28218 15.3151C8.81343 14.5346 8.77479 13.9493 8.0465 13.221C7.31627 12.4927 6.89127 11.4244 6.89127 11.4244C6.89127 11.4244 6.73286 10.8062 6.37161 10.8642C6.01036 10.9221 5.7457 11.8455 6.50297 12.4116C7.25831 12.9776 6.35229 13.362 6.06059 12.8308C5.77081 12.2995 4.97491 10.9337 4.5615 10.671C4.15002 10.4102 3.86025 10.5551 3.95684 11.096C4.05343 11.635 5.77854 12.9409 5.61047 13.221C5.44241 13.505 4.85127 12.8906 4.85127 12.8906C4.85127 12.8906 3.00252 11.208 2.59877 11.6466C2.19695 12.0851 2.90593 12.4521 3.9124 13.0626C4.92275 13.673 5.00195 13.8353 4.859 14.0671C4.71411 14.2989 2.48672 12.4193 2.27809 13.2171C2.06945 14.0111 4.55184 14.241 4.39922 14.7916C4.24468 15.3421 2.649 13.7522 2.32445 14.3704C1.99604 14.9905 4.57502 15.7188 4.59627 15.7246C5.42695 15.941 7.54229 16.3988 8.28218 15.3151Z" fill="#FFD21E"/>
<path d="M15.7755 9.77271C16.0885 9.77271 16.3686 9.9002 16.5618 10.134C16.7282 10.3395 16.8189 10.5959 16.8187 10.8603C16.941 10.8236 17.0678 10.8041 17.1954 10.8024C17.4949 10.8024 17.7653 10.9163 17.9566 11.123C18.1272 11.3002 18.2348 11.5286 18.2627 11.773C18.2906 12.0174 18.2374 12.2642 18.1111 12.4753C18.2814 12.6152 18.402 12.8062 18.455 13.0201C18.5013 13.194 18.5477 13.561 18.3004 13.9358C18.3931 14.0783 18.4483 14.2419 18.4608 14.4115C18.4733 14.581 18.4427 14.751 18.3719 14.9055C18.1749 15.3537 17.6823 15.7053 16.7279 16.084C16.1329 16.3196 15.5882 16.4703 15.5843 16.4722C14.8961 16.6629 14.1868 16.7667 13.4728 16.7813C12.3408 16.7813 11.5313 16.4336 11.0658 15.7497C10.3162 14.6505 10.4225 13.6441 11.3942 12.6743C11.9312 12.1373 12.2886 11.3471 12.362 11.1733C12.5127 10.6594 12.9087 10.0876 13.5675 10.0876C13.7427 10.0904 13.9148 10.1349 14.0694 10.2176C14.2239 10.3002 14.3565 10.4186 14.4561 10.5628C14.6493 10.3194 14.8386 10.1282 15.0105 10.018C15.2369 9.86482 15.5023 9.77968 15.7755 9.77271ZM15.7755 10.5454C15.677 10.5454 15.5573 10.5879 15.424 10.671C15.0125 10.9337 14.2166 12.2995 13.9249 12.8308C13.8855 12.9066 13.8262 12.9702 13.7534 13.0148C13.6805 13.0594 13.5969 13.0833 13.5115 13.0838C13.214 13.0838 12.9802 12.7883 13.4844 12.4116C14.2398 11.8455 13.9751 10.9202 13.6138 10.8642C13.5985 10.8617 13.583 10.8604 13.5675 10.8603C13.2391 10.8603 13.0942 11.4263 13.0942 11.4263C13.0942 11.4263 12.6692 12.4927 11.9409 13.2229C11.2107 13.9512 11.172 14.5366 11.7052 15.3151C12.0665 15.8463 12.7619 16.0067 13.4728 16.0067C14.2108 16.0067 14.9661 15.8328 15.3911 15.7246C15.4104 15.7188 17.9894 14.9905 17.6629 14.3724C17.6069 14.268 17.518 14.2255 17.4041 14.2255C16.9443 14.2255 16.1078 14.9094 15.7485 14.9094C15.6674 14.9094 15.6113 14.8766 15.5882 14.7935C15.4336 14.2429 17.916 14.0111 17.7074 13.2152C17.6707 13.0742 17.5721 13.0182 17.4292 13.0182C16.8226 13.0182 15.4587 14.0865 15.1728 14.0865C15.1535 14.0865 15.1361 14.0807 15.1284 14.0671C14.9854 13.8353 15.0627 13.673 16.0711 13.0626C17.0815 12.4521 17.7904 12.0851 17.3848 11.6466C17.3403 11.5963 17.2746 11.5732 17.1954 11.5732C16.5811 11.5732 15.1342 12.8907 15.1342 12.8907C15.1342 12.8907 14.744 13.2963 14.5083 13.2963C14.4817 13.2975 14.4554 13.2913 14.4322 13.2783C14.4089 13.2654 14.3898 13.2462 14.3769 13.2229C14.2088 12.9409 15.932 11.635 16.0286 11.096C16.0943 10.729 15.9823 10.5454 15.7755 10.5454Z" fill="#FF9D0B"/>
<path d="M11.7045 15.3151C11.1732 14.5346 11.21 13.9493 11.9402 13.221C12.6685 12.4927 13.0935 11.4244 13.0935 11.4244C13.0935 11.4244 13.2519 10.8062 13.6151 10.8642C13.9744 10.9221 14.239 11.8455 13.4837 12.4116C12.7264 12.9776 13.6344 13.362 13.9242 12.8308C14.2159 12.2995 15.0118 10.9337 15.4232 10.671C15.8347 10.4102 16.1264 10.5551 16.0279 11.096C15.9313 11.635 14.2081 12.9409 14.3762 13.221C14.5423 13.505 15.1335 12.8906 15.1335 12.8906C15.1335 12.8906 16.9842 11.208 17.386 11.6466C17.7878 12.0851 17.0807 12.4521 16.0723 13.0626C15.062 13.673 14.9847 13.8353 15.1257 14.0671C15.2706 14.2989 17.498 12.4193 17.7067 13.2171C17.9153 14.0111 15.4348 14.241 15.5875 14.7916C15.742 15.3421 17.3357 13.7522 17.6622 14.3704C17.9887 14.9905 15.4117 15.7188 15.3904 15.7246C14.5578 15.941 12.4425 16.3988 11.7045 15.3151Z" fill="#FFD21E"/>
</svg>
