<svg width="6" height="16" viewBox="0 0 6 16" fill="none" xmlns="http://www.w3.org/2000/svg">
<path d="M0 11.75C0 12.1642 0.33579 12.5 0.75 12.5C1.16421 12.5 1.5 12.1642 1.5 11.75C1.5 11.3358 1.16421 11 0.75 11C1.16421 11 1.5 10.6642 1.5 10.25C1.5 9.83579 1.16421 9.5 0.75 9.5C1.16421 9.5 1.5 9.16421 1.5 8.75C1.5 8.33579 1.16421 8 0.75 8C1.16421 8 1.5 7.66421 1.5 7.25C1.5 6.83579 1.16421 6.5 0.75 6.5C1.16421 6.5 1.5 6.16421 1.5 5.75C1.5 5.33579 1.16421 5 0.75 5C1.16421 5 1.5 4.66415 1.5 4.25C1.5 3.83585 1.16421 3.5 0.75 3.5C0.33579 3.5 0 3.83585 0 4.25C0 4.66415 0.33579 5 0.75 5C0.33579 5 0 5.33579 0 5.75C0 6.16421 0.33579 6.5 0.75 6.5C0.33579 6.5 0 6.83579 0 7.25C0 7.66421 0.33579 8 0.75 8C0.33579 8 0 8.33579 0 8.75C0 9.16421 0.33579 9.5 0.75 9.5C0.33579 9.5 0 9.83579 0 10.25C0 10.6642 0.33579 11 0.75 11C0.33579 11 0 11.3358 0 11.75Z" fill="#0C100A"/>
<path d="M1.5 13.25C1.5 13.6642 1.83579 14 2.25 14C2.66421 14 3 13.6642 3 13.25C3 12.8358 2.66421 12.5 2.25 12.5C1.83579 12.5 1.5 12.8358 1.5 13.25Z" fill="#0C100A"/>
<path d="M3 14.75C3 15.1642 3.33579 15.5 3.75 15.5C4.16421 15.5 4.5 15.1642 4.5 14.75C4.5 15.1642 4.83579 15.5 5.25 15.5C5.66421 15.5 6 15.1642 6 14.75C6 14.3358 5.66421 14 5.25 14C5.66421 14 6 13.6642 6 13.25C6 12.8358 5.66421 12.5 5.25 12.5C5.66421 12.5 6 12.1642 6 11.75C6 11.3358 5.66421 11 5.25 11C5.66421 11 6 10.6642 6 10.25C6 9.83579 5.66421 9.5 5.25 9.5C5.66421 9.5 6 9.16421 6 8.75C6 8.33579 5.66421 8 5.25 8C5.66421 8 6 7.66421 6 7.25C6 6.83579 5.66421 6.5 5.25 6.5C5.66421 6.5 6 6.16421 6 5.75C6 5.33579 5.66421 5 5.25 5C5.66421 5 6 4.66415 6 4.25C6 3.83585 5.66421 3.5 5.25 3.5C5.66421 3.5 6 3.16415 6 2.75C6 2.33585 5.66421 2 5.25 2C5.66421 2 6 1.66415 6 1.25C6 0.83585 5.66421 0.5 5.25 0.5C4.83579 0.5 4.5 0.83585 4.5 1.25C4.5 0.83585 4.16421 0.5 3.75 0.5C3.33579 0.5 3 0.83585 3 1.25C3 1.66415 3.33579 2 3.75 2C4.16421 2 4.5 1.66415 4.5 1.25C4.5 1.66415 4.83579 2 5.25 2C4.83579 2 4.5 2.33585 4.5 2.75C4.5 3.16415 4.83579 3.5 5.25 3.5C4.83579 3.5 4.5 3.83585 4.5 4.25C4.5 4.66415 4.83579 5 5.25 5C4.83579 5 4.5 5.33579 4.5 5.75C4.5 6.16421 4.83579 6.5 5.25 6.5C4.83579 6.5 4.5 6.83579 4.5 7.25C4.5 7.66421 4.83579 8 5.25 8C4.83579 8 4.5 8.33579 4.5 8.75C4.5 9.16421 4.83579 9.5 5.25 9.5C4.83579 9.5 4.5 9.83579 4.5 10.25C4.5 10.6642 4.83579 11 5.25 11C4.83579 11 4.5 11.3358 4.5 11.75C4.5 12.1642 4.83579 12.5 5.25 12.5C4.83579 12.5 4.5 12.8358 4.5 13.25C4.5 13.6642 4.83579 14 5.25 14C4.83579 14 4.5 14.3358 4.5 14.75C4.5 14.3358 4.16421 14 3.75 14C3.33579 14 3 14.3358 3 14.75Z" fill="#0C100A"/>
<path d="M2.25 3.5C1.83579 3.5 1.5 3.16415 1.5 2.75C1.5 2.33585 1.83579 2 2.25 2C2.66421 2 3 2.33585 3 2.75C3 3.16415 2.66421 3.5 2.25 3.5Z" fill="#0C100A"/>
</svg>
