<svg width="120" height="120" viewBox="0 0 120 120" xmlns="http://www.w3.org/2000/svg">
<g clip-path="url(#clip0_55_2145)">
<path d="M0 120V0H120V120H0ZM34.2276 66.4997C34.2276 67.2984 34.2291 68.0971 34.2276 68.8973C34.2173 72.415 34.232 75.9327 34.207 79.4503C34.1805 83.0476 34.1981 86.6448 34.1539 90.2421C34.12 93.0258 34.1303 95.8111 34.123 98.5963C34.1215 99.1563 34.0729 99.7134 33.9712 100.263C33.7472 101.461 33.1636 102.428 32.0996 103.059C31.0386 103.688 29.8921 103.878 28.6777 103.658C27.8127 103.502 27.0641 103.144 26.4893 102.453C26.1371 102.029 25.8807 101.553 25.6832 101.047C25.1674 99.7311 24.7843 98.3797 24.6133 96.9694C24.5102 96.1117 24.3687 95.2585 24.2199 94.4081C24.1226 93.8526 23.9192 93.3382 23.4978 92.93C22.7315 92.1873 21.5761 92.2816 20.9586 93.1467C20.8186 93.3427 20.7052 93.5534 20.6226 93.7804C20.434 94.2976 20.3338 94.837 20.3279 95.3808C20.3161 96.5126 20.3028 97.6458 20.3441 98.7776C20.4252 100.932 20.49 103.088 20.5563 105.244C20.5666 105.59 20.574 105.935 20.6079 106.28C20.6934 107.126 21.0868 107.621 21.9033 107.857C22.366 107.991 22.8449 108.028 23.3254 108.028C31.4394 108.028 39.5535 108.028 47.6675 108.028C52.1976 108.028 56.7277 108.028 61.2578 108.028C61.8723 108.028 62.4839 107.982 63.066 107.768C64.0872 107.394 64.2832 106.301 63.4639 105.582C63.2915 105.431 63.0969 105.318 62.8891 105.225C62.4338 105.02 61.9519 104.918 61.4567 104.914C59.4201 104.893 57.382 104.902 55.3454 104.831C54.2475 104.793 53.1644 104.627 52.1519 104.201C49.3402 103.02 47.7501 100.866 47.2431 97.8845C47.0457 96.7218 47.0663 95.5502 47.1694 94.3816C47.2726 93.2174 47.3934 92.0532 47.5128 90.8905C47.5614 90.413 47.6484 89.9444 47.8871 89.5155C48.2924 88.7875 49.1677 88.1922 50.2465 88.9526C51.0629 89.5273 51.8719 90.1109 52.7399 90.6105C55.2629 92.0606 57.9656 93.045 60.7862 93.7155C63.4315 94.3433 66.1135 94.7382 68.8207 94.9652C69.9215 95.058 71.0253 95.0964 72.1276 95.1361C73.7796 95.1966 75.4287 95.1302 77.0689 94.9387C78.9227 94.722 80.7442 94.333 82.5495 93.8702C84.9221 93.2616 87.1989 92.4216 89.212 90.9804C90.3821 90.1418 91.3768 89.1309 92.1608 87.921C92.4762 87.4332 92.6839 86.9086 92.6972 86.3132C92.7178 85.4113 92.0989 84.7585 91.1941 84.7644C90.5707 84.7688 89.9901 84.9633 89.4256 85.2065C88.5709 85.5749 87.7191 85.9492 86.8629 86.3162C85.3833 86.9513 83.8949 87.5629 82.3196 87.9225C79.9573 88.4619 77.5846 88.932 75.1472 88.9821C73.3478 89.0189 71.5544 88.9762 69.7624 88.8155C68.1841 88.6741 66.619 88.4412 65.0672 88.1185C62.5163 87.5865 60.0494 86.8128 57.7151 85.6368C54.8576 84.197 52.5277 82.1693 50.7873 79.471C49.5185 77.5036 48.6505 75.3697 48.0566 73.115C47.5939 71.3613 47.2976 69.5767 47.1945 67.7685C47.1149 66.3611 47.1149 64.9479 47.2254 63.5361C47.3183 62.3542 47.473 61.1826 47.6941 60.0199C48.1259 57.7475 48.8568 55.5679 49.7985 53.4606C50.4734 51.9515 51.2058 50.472 52.2492 49.1722C52.9256 48.3307 53.5991 47.4892 54.2858 46.6566C55.3366 45.3848 56.5582 44.2899 57.9302 43.3865C60.882 41.4442 64.1329 40.7781 67.6138 41.3278C70.651 41.8082 73.0988 43.2907 74.8716 45.8284C75.5996 46.8703 76.2156 47.9711 76.4735 49.2385C76.6047 49.8854 76.6238 50.5309 76.444 51.1734C76.3497 51.5109 76.1964 51.813 75.9415 52.0606C75.3358 52.65 74.6255 52.8239 73.8091 52.6353C73.2712 52.5115 72.7849 52.2654 72.2971 52.0223C71.3761 51.561 70.4255 51.1867 69.3969 51.0511C68.6424 50.9524 67.8849 50.9568 67.1274 50.9848C66.1091 51.0231 65.1173 51.1999 64.1771 51.6052C62.8184 52.1903 61.7574 53.1349 60.8967 54.3256C59.5513 56.1854 58.5418 58.2176 57.8226 60.3942C57.2509 62.1228 56.9296 63.9001 56.9414 65.7245C56.9473 66.7369 57.1005 67.7375 57.2833 68.7323C57.41 69.4264 57.578 70.1116 57.8389 70.7704C58.7466 73.0649 60.1835 74.9674 62.1022 76.5089C63.3047 77.4741 64.6428 78.2124 66.0531 78.8225C67.6447 79.5107 69.2775 80.0737 70.9914 80.3728C72.5064 80.6381 74.0316 80.6956 75.5657 80.6116C76.951 80.5364 78.3215 80.3581 79.6743 80.0619C82.4345 79.4548 85.1255 78.6206 87.7294 77.5154C89.1412 76.9171 90.5029 76.22 91.7644 75.3417C93.7081 73.9889 95.4618 72.4224 97.046 70.6613C99.9005 67.487 101.999 63.8795 103.297 59.8121C103.722 58.4814 104.045 57.1271 104.286 55.7477C104.512 54.4612 104.652 53.1658 104.708 51.866C104.749 50.8964 104.74 49.9237 104.675 48.9511C104.596 47.756 104.473 46.5682 104.269 45.3863C103.695 42.0779 102.603 38.9522 100.987 36.0108C99.0841 32.5476 96.5833 29.5841 93.5063 27.1083C91.5654 25.5462 89.4816 24.2317 87.1267 23.3696C85.4614 22.7595 83.7594 22.2879 82.0293 21.9062C80.924 21.6616 79.9661 21.1355 79.216 20.266C78.9905 20.0037 78.7651 19.7399 78.5322 19.4835C78.1682 19.0826 77.7379 18.785 77.2221 18.6007C76.5074 18.3458 75.7676 18.281 75.0219 18.281C63.0969 18.2765 51.1719 18.278 39.247 18.278C33.7973 18.278 28.3476 18.278 22.898 18.278C22.2982 18.278 21.6984 18.3134 21.1163 18.4696C20.3957 18.6641 19.9462 19.1254 19.7944 19.8637C19.734 20.154 19.7414 20.4458 19.7841 20.7361C19.8961 21.4759 20.238 22.1228 20.6212 22.7491C21.4346 24.0769 22.6165 24.9007 24.1197 25.2691C24.9272 25.4681 25.7569 25.4548 26.5792 25.5034C27.3367 25.5491 28.1015 25.5963 28.834 25.782C30.3194 26.1607 31.6251 26.8916 32.695 28.0057C33.6485 28.999 34.2571 30.1735 34.2954 31.5662C34.3249 32.6434 34.3352 33.7236 34.3632 34.8009C34.3794 35.4419 34.3072 36.0771 34.3057 36.7167C34.2925 44.032 34.3337 51.3473 34.2836 58.6641C34.2659 61.2755 34.291 63.8868 34.2276 66.4982V66.4997Z" fill="#FCFDFC"/>
<path d="M61.4066 27.7302C62.8184 27.7302 64.2302 27.7287 65.642 27.7302C67.7464 27.7331 69.8523 27.7125 71.9567 27.7493C74.9055 27.7994 77.7129 28.4655 80.2903 29.923C82.6747 31.2714 84.8838 32.8718 86.7863 34.8613C88.1038 36.2392 89.1501 37.8086 90.0033 39.5063C91.4151 42.3151 92.4364 45.264 93.0656 48.3454C93.3338 49.6614 93.4812 50.9922 93.5623 52.3362C93.6934 54.5452 93.4561 56.7159 93.0126 58.8749C92.4703 61.5127 91.5536 64.0077 90.2524 66.3685C89.2458 68.1944 87.949 69.755 86.2602 70.9826C85.8505 71.2803 85.4364 71.5691 85.0297 71.8712C83.5236 72.9883 81.8406 73.7295 80.0457 74.2409C78.715 74.6196 77.3754 74.9497 76.0004 75.1162C72.6979 75.5171 69.5457 75.044 66.6058 73.4466C65.5933 72.8969 64.7607 72.0967 64.0136 71.2198C62.8906 69.9038 62.0418 68.4479 61.7073 66.7251C61.6129 66.2418 61.5452 65.754 61.5054 65.2647C61.4449 64.5235 61.3536 63.7807 61.414 63.035C61.5805 61.0102 62.3262 59.233 63.7807 57.805C65.1277 56.4831 66.7811 55.9938 68.6512 56.1942C69.9318 56.3313 71.0563 56.7778 71.8859 57.802C72.5992 58.6818 72.9897 59.7104 73.1607 60.8201C73.3758 62.2083 73.0325 63.4565 72.1733 64.5677C71.8226 65.0201 71.4704 65.474 71.1859 65.9721C70.7807 66.6794 71.0091 67.3072 71.7784 67.599C72.3398 67.8127 72.9043 67.7449 73.4672 67.6034C74.1701 67.4281 74.8274 67.1436 75.4287 66.7369C77.287 65.4784 78.9345 64.0047 80.14 62.083C81.4192 60.0449 82.2017 57.833 82.5244 55.45C82.6718 54.3639 82.7145 53.2719 82.6467 52.1829C82.5038 49.8736 81.9246 47.6793 80.9078 45.5926C80.196 44.1322 79.331 42.7823 78.2655 41.5636C75.691 38.6192 72.5329 36.6282 68.6866 35.7941C66.2226 35.2592 63.7689 35.3432 61.3359 35.9916C58.8837 36.6444 56.6776 37.7895 54.6837 39.3531C53.4841 40.2947 52.4187 41.3705 51.4578 42.5524C51.1277 42.9591 50.7357 43.2981 50.2686 43.5427C49.3461 44.0261 48.3896 43.7652 47.8503 42.8781C47.504 42.3092 47.3492 41.6785 47.2623 41.0286C47.1444 40.14 47.168 39.2469 47.193 38.3568C47.2151 37.5699 47.1783 36.7859 47.1385 36.0019C47.0678 34.5916 46.9911 33.1828 47.0162 31.771C47.0235 31.3451 47.0339 30.9207 47.0707 30.4948C47.1768 29.279 47.756 28.4243 48.9084 27.9807C49.6408 27.6992 50.4086 27.6196 51.1823 27.6049C52.6869 27.5784 54.1915 27.5651 55.6961 27.6255C56.6408 27.6624 57.5869 27.6594 58.533 27.6653C59.4923 27.6712 60.4517 27.6653 61.411 27.6653C61.411 27.6874 61.411 27.7095 61.411 27.7316L61.4066 27.7302Z" fill="#FCFDFC"/>
</g>
<defs>
<clipPath id="clip0_55_2145">
<rect width="120" height="120" fill="white"/>
</clipPath>
</defs>
</svg>
