<svg width="16" height="16" viewBox="0 0 16 16" fill="none" xmlns="http://www.w3.org/2000/svg">
<path fill-rule="evenodd" clip-rule="evenodd" d="M3.5 1.25C3.5 0.83579 3.83579 0.5 4.25 0.5C4.66421 0.5 5 0.83579 5 1.25C5 1.66421 4.66421 2 4.25 2C3.83579 2 3.5 1.66421 3.5 1.25ZM3.5 1.25C3.5 1.66421 3.16421 2 2.75 2C2.33579 2 2 1.66421 2 1.25C2 0.83579 2.33579 0.5 2.75 0.5C3.16421 0.5 3.5 0.83579 3.5 1.25ZM6.5 1.25C6.5 1.66421 6.16421 2 5.75 2C5.33579 2 5 1.66421 5 1.25C5 0.83579 5.33579 0.5 5.75 0.5C6.16421 0.5 6.5 0.83579 6.5 1.25ZM8 1.25C8 1.66421 7.66421 2 7.25 2C6.83579 2 6.5 1.66421 6.5 1.25C6.5 0.83579 6.83579 0.5 7.25 0.5C7.66421 0.5 8 0.83579 8 1.25ZM9.5 1.25C9.5 1.66421 9.16421 2 8.75 2C8.33579 2 8 1.66421 8 1.25C8 0.83579 8.33579 0.5 8.75 0.5C9.16421 0.5 9.5 0.83579 9.5 1.25ZM11 1.25C11 1.66421 10.6642 2 10.25 2C9.83579 2 9.5 1.66421 9.5 1.25C9.5 0.83579 9.83579 0.5 10.25 0.5C10.6642 0.5 11 0.83579 11 1.25ZM12.5 1.25C12.5 1.66421 12.1642 2 11.75 2C11.3358 2 11 1.66421 11 1.25C11 0.83579 11.3358 0.5 11.75 0.5C12.1642 0.5 12.5 0.83579 12.5 1.25ZM12.5 1.25C12.5 0.83579 12.8358 0.5 13.25 0.5C13.6642 0.5 14 0.83579 14 1.25C14 1.66421 13.6642 2 13.25 2C12.8358 2 12.5 1.66421 12.5 1.25ZM3.5 14.75C3.5 14.3358 3.83579 14 4.25 14C4.66421 14 5 14.3358 5 14.75C5 15.1642 4.66421 15.5 4.25 15.5C3.83579 15.5 3.5 15.1642 3.5 14.75ZM6.5 14.75C6.5 15.1642 6.16421 15.5 5.75 15.5C5.33579 15.5 5 15.1642 5 14.75C5 14.3358 5.33579 14 5.75 14C6.16421 14 6.5 14.3358 6.5 14.75ZM8 14.75C8 15.1642 7.66421 15.5 7.25 15.5C6.83579 15.5 6.5 15.1642 6.5 14.75C6.5 14.3358 6.83579 14 7.25 14C7.66421 14 8 14.3358 8 14.75ZM9.5 14.75C9.5 15.1642 9.16421 15.5 8.75 15.5C8.33579 15.5 8 15.1642 8 14.75C8 14.3358 8.33579 14 8.75 14C9.16421 14 9.5 14.3358 9.5 14.75ZM11 14.75C11 15.1642 10.6642 15.5 10.25 15.5C9.83579 15.5 9.5 15.1642 9.5 14.75C9.5 14.3358 9.83579 14 10.25 14C10.6642 14 11 14.3358 11 14.75ZM12.5 14.75C12.5 15.1642 12.1642 15.5 11.75 15.5C11.3358 15.5 11 15.1642 11 14.75C11 14.3358 11.3358 14 11.75 14C12.1642 14 12.5 14.3358 12.5 14.75ZM12.5 14.75C12.5 14.3358 12.8358 14 13.25 14C13.6642 14 14 14.3358 14 14.75C14 15.1642 13.6642 15.5 13.25 15.5C12.8358 15.5 12.5 15.1642 12.5 14.75ZM2.75 14C3.16421 14 3.5 14.3358 3.5 14.75C3.5 15.1642 3.16421 15.5 2.75 15.5C2.33579 15.5 2 15.1642 2 14.75C2 14.3358 2.33579 14 2.75 14ZM0.5 13.25C0.5 12.8358 0.83579 12.5 1.25 12.5C1.66421 12.5 2 12.8358 2 13.25C2 13.6642 1.66421 14 1.25 14C0.83579 14 0.5 13.6642 0.5 13.25ZM1.25 11C1.66421 11 2 11.3358 2 11.75C2 12.1642 1.66421 12.5 1.25 12.5C0.83579 12.5 0.5 12.1642 0.5 11.75C0.5 11.3358 0.83579 11 1.25 11ZM1.25 9.5C1.66421 9.5 2 9.83579 2 10.25C2 10.6642 1.66421 11 1.25 11C0.83579 11 0.5 10.6642 0.5 10.25C0.5 9.83579 0.83579 9.5 1.25 9.5ZM1.25 8C1.66421 8 2 8.33579 2 8.75C2 9.16421 1.66421 9.5 1.25 9.5C0.83579 9.5 0.5 9.16421 0.5 8.75C0.5 8.33579 0.83579 8 1.25 8ZM1.25 6.5C1.66421 6.5 2 6.83579 2 7.25C2 7.66421 1.66421 8 1.25 8C0.83579 8 0.5 7.66421 0.5 7.25C0.5 6.83579 0.83579 6.5 1.25 6.5ZM1.25 5C1.66421 5 2 5.33579 2 5.75C2 6.16421 1.66421 6.5 1.25 6.5C0.83579 6.5 0.5 6.16421 0.5 5.75C0.5 5.33579 0.83579 5 1.25 5ZM1.25 3.5C1.66421 3.5 2 3.83579 2 4.25C2 4.66421 1.66421 5 1.25 5C0.83579 5 0.5 4.66421 0.5 4.25C0.5 3.83579 0.83579 3.5 1.25 3.5ZM1.25 3.5C1.66421 3.5 2 3.16421 2 2.75C2 2.33579 1.66421 2 1.25 2C0.83579 2 0.5 2.33579 0.5 2.75C0.5 3.16421 0.83579 3.5 1.25 3.5ZM14.75 12.5C14.3358 12.5 14 12.8358 14 13.25C14 13.6642 14.3358 14 14.75 14C15.1642 14 15.5 13.6642 15.5 13.25C15.5 12.8358 15.1642 12.5 14.75 12.5ZM14.75 11C14.3358 11 14 10.6642 14 10.25C14 9.83579 14.3358 9.5 14.75 9.5C15.1642 9.5 15.5 9.83579 15.5 10.25C15.5 10.6642 15.1642 11 14.75 11ZM14.75 8C14.3358 8 14 7.66421 14 7.25C14 6.83579 14.3358 6.5 14.75 6.5C15.1642 6.5 15.5 6.83579 15.5 7.25C15.5 7.66421 15.1642 8 14.75 8ZM14.75 5C14.3358 5 14 4.66421 14 4.25C14 3.83579 14.3358 3.5 14.75 3.5C15.1642 3.5 15.5 3.83579 15.5 4.25C15.5 4.66421 15.1642 5 14.75 5ZM14.75 5C14.3358 5 14 5.33579 14 5.75C14 6.16421 14.3358 6.5 14.75 6.5C15.1642 6.5 15.5 6.16421 15.5 5.75C15.5 5.33579 15.1642 5 14.75 5ZM14.75 8C14.3358 8 14 8.33579 14 8.75C14 9.16421 14.3358 9.5 14.75 9.5C15.1642 9.5 15.5 9.16421 15.5 8.75C15.5 8.33579 15.1642 8 14.75 8ZM14.75 11C14.3358 11 14 11.3358 14 11.75C14 12.1642 14.3358 12.5 14.75 12.5C15.1642 12.5 15.5 12.1642 15.5 11.75C15.5 11.3358 15.1642 11 14.75 11ZM14.75 3.5C15.1642 3.5 15.5 3.16421 15.5 2.75C15.5 2.33579 15.1642 2 14.75 2C14.3358 2 14 2.33579 14 2.75C14 3.16421 14.3358 3.5 14.75 3.5ZM5 5.75C5 5.33579 5.33579 5 5.75 5C6.16421 5 6.5 5.33579 6.5 5.75C6.5 6.16421 6.16421 6.5 5.75 6.5C5.33579 6.5 5 6.16421 5 5.75ZM10.25 5C9.83579 5 9.5 5.33579 9.5 5.75C9.5 6.16421 9.83579 6.5 10.25 6.5C10.6642 6.5 11 6.16421 11 5.75C11 5.33579 10.6642 5 10.25 5ZM6.5 11.75C6.5 11.3358 6.83579 11 7.25 11C7.66421 11 8 11.3358 8 11.75C8 12.1642 7.66421 12.5 7.25 12.5C6.83579 12.5 6.5 12.1642 6.5 11.75ZM6.5 11.75C6.5 12.1642 6.16421 12.5 5.75 12.5C5.33579 12.5 5 12.1642 5 11.75C5 11.3358 5.33579 11 5.75 11C6.16421 11 6.5 11.3358 6.5 11.75ZM9.5 11.75C9.5 12.1642 9.16421 12.5 8.75 12.5C8.33579 12.5 8 12.1642 8 11.75C8 11.3358 8.33579 11 8.75 11C9.16421 11 9.5 11.3358 9.5 11.75ZM9.5 11.75C9.5 11.3358 9.83579 11 10.25 11C10.6642 11 11 11.3358 11 11.75C11 12.1642 10.6642 12.5 10.25 12.5C9.83579 12.5 9.5 12.1642 9.5 11.75ZM11.75 9.5C11.3358 9.5 11 9.83579 11 10.25C11 10.6642 11.3358 11 11.75 11C12.1642 11 12.5 10.6642 12.5 10.25C12.5 9.83579 12.1642 9.5 11.75 9.5ZM4.25 9.5C3.83579 9.5 3.5 9.83579 3.5 10.25C3.5 10.6642 3.83579 11 4.25 11C4.66421 11 5 10.6642 5 10.25C5 9.83579 4.66421 9.5 4.25 9.5Z" fill="#0C100A"/>
</svg>
