<svg width="16" height="16" viewBox="0 0 16 16" fill="none" xmlns="http://www.w3.org/2000/svg">
<path fill-rule="evenodd" clip-rule="evenodd" d="M1.25 0.5C0.83579 0.5 0.5 0.83579 0.5 1.25C0.5 1.66421 0.83579 2 1.25 2C1.66421 2 2 1.66421 2 1.25C2 0.83579 1.66421 0.5 1.25 0.5ZM14 1.25C14 0.83579 14.3358 0.5 14.75 0.5C15.1642 0.5 15.5 0.83579 15.5 1.25C15.5 1.66421 15.1642 2 14.75 2C14.3358 2 14 1.66421 14 1.25ZM2.75 2C2.33579 2 2 2.33579 2 2.75C2 3.16421 2.33579 3.5 2.75 3.5C3.16421 3.5 3.5 3.16421 3.5 2.75C3.5 2.33579 3.16421 2 2.75 2ZM12.5 2.75C12.5 2.33579 12.8358 2 13.25 2C13.6642 2 14 2.33579 14 2.75C14 3.16421 13.6642 3.5 13.25 3.5C12.8358 3.5 12.5 3.16421 12.5 2.75ZM5 4.25C5 3.83579 5.33579 3.5 5.75 3.5C6.16421 3.5 6.5 3.83579 6.5 4.25C6.5 4.66421 6.16421 5 5.75 5C5.33579 5 5 4.66421 5 4.25ZM8 4.25C8 4.66421 7.66421 5 7.25 5C6.83579 5 6.5 4.66421 6.5 4.25C6.5 3.83579 6.83579 3.5 7.25 3.5C7.66421 3.5 8 3.83579 8 4.25ZM9.5 4.25C9.5 4.66421 9.16421 5 8.75 5C8.33579 5 8 4.66421 8 4.25C8 3.83579 8.33579 3.5 8.75 3.5C9.16421 3.5 9.5 3.83579 9.5 4.25ZM9.5 4.25C9.5 3.83579 9.83579 3.5 10.25 3.5C10.6642 3.5 11 3.83579 11 4.25C11 4.66421 10.6642 5 10.25 5C9.83579 5 9.5 4.66421 9.5 4.25ZM3.5 5.75C3.5 5.33579 3.83579 5 4.25 5C4.66421 5 5 5.33579 5 5.75C5 6.16421 4.66421 6.5 4.25 6.5C3.83579 6.5 3.5 6.16421 3.5 5.75ZM4.25 8C3.83579 8 3.5 7.66421 3.5 7.25C3.5 6.83579 3.83579 6.5 4.25 6.5C4.66421 6.5 5 6.83579 5 7.25C5 7.66421 4.66421 8 4.25 8ZM4.25 9.5C3.83579 9.5 3.5 9.16421 3.5 8.75C3.5 8.33579 3.83579 8 4.25 8C4.66421 8 5 8.33579 5 8.75C5 9.16421 4.66421 9.5 4.25 9.5ZM4.25 9.5C4.66421 9.5 5 9.83579 5 10.25C5 10.6642 4.66421 11 4.25 11C3.83579 11 3.5 10.6642 3.5 10.25C3.5 9.83579 3.83579 9.5 4.25 9.5ZM5 11.75C5 11.3358 5.33579 11 5.75 11C6.16421 11 6.5 11.3358 6.5 11.75C6.5 12.1642 6.16421 12.5 5.75 12.5C5.33579 12.5 5 12.1642 5 11.75ZM8 11.75C8 12.1642 7.66421 12.5 7.25 12.5C6.83579 12.5 6.5 12.1642 6.5 11.75C6.5 11.3358 6.83579 11 7.25 11C7.66421 11 8 11.3358 8 11.75ZM9.5 11.75C9.5 12.1642 9.16421 12.5 8.75 12.5C8.33579 12.5 8 12.1642 8 11.75C8 11.3358 8.33579 11 8.75 11C9.16421 11 9.5 11.3358 9.5 11.75ZM9.5 11.75C9.5 11.3358 9.83579 11 10.25 11C10.6642 11 11 11.3358 11 11.75C11 12.1642 10.6642 12.5 10.25 12.5C9.83579 12.5 9.5 12.1642 9.5 11.75ZM11.75 9.5C11.3358 9.5 11 9.83579 11 10.25C11 10.6642 11.3358 11 11.75 11C12.1642 11 12.5 10.6642 12.5 10.25C12.5 9.83579 12.1642 9.5 11.75 9.5ZM11.75 8C11.3358 8 11 7.66421 11 7.25C11 6.83579 11.3358 6.5 11.75 6.5C12.1642 6.5 12.5 6.83579 12.5 7.25C12.5 7.66421 12.1642 8 11.75 8ZM11.75 8C11.3358 8 11 8.33579 11 8.75C11 9.16421 11.3358 9.5 11.75 9.5C12.1642 9.5 12.5 9.16421 12.5 8.75C12.5 8.33579 12.1642 8 11.75 8ZM11.75 6.5C12.1642 6.5 12.5 6.16421 12.5 5.75C12.5 5.33579 12.1642 5 11.75 5C11.3358 5 11 5.33579 11 5.75C11 6.16421 11.3358 6.5 11.75 6.5ZM2 13.25C2 12.8358 2.33579 12.5 2.75 12.5C3.16421 12.5 3.5 12.8358 3.5 13.25C3.5 13.6642 3.16421 14 2.75 14C2.33579 14 2 13.6642 2 13.25ZM13.25 12.5C12.8358 12.5 12.5 12.8358 12.5 13.25C12.5 13.6642 12.8358 14 13.25 14C13.6642 14 14 13.6642 14 13.25C14 12.8358 13.6642 12.5 13.25 12.5ZM0.5 14.75C0.5 14.3358 0.83579 14 1.25 14C1.66421 14 2 14.3358 2 14.75C2 15.1642 1.66421 15.5 1.25 15.5C0.83579 15.5 0.5 15.1642 0.5 14.75ZM14.75 14C14.3358 14 14 14.3358 14 14.75C14 15.1642 14.3358 15.5 14.75 15.5C15.1642 15.5 15.5 15.1642 15.5 14.75C15.5 14.3358 15.1642 14 14.75 14ZM8 1.25C8 0.83579 8.33579 0.5 8.75 0.5C9.16421 0.5 9.5 0.83579 9.5 1.25C9.5 1.66421 9.16421 2 8.75 2C8.33579 2 8 1.66421 8 1.25ZM7.25 0.5C7.66421 0.5 8 0.83579 8 1.25C8 1.66421 7.66421 2 7.25 2C6.83579 2 6.5 1.66421 6.5 1.25C6.5 0.83579 6.83579 0.5 7.25 0.5ZM6.5 14.75C6.5 14.3358 6.83579 14 7.25 14C7.66421 14 8 14.3358 8 14.75C8 15.1642 7.66421 15.5 7.25 15.5C6.83579 15.5 6.5 15.1642 6.5 14.75ZM8 14.75C8 14.3358 8.33579 14 8.75 14C9.16421 14 9.5 14.3358 9.5 14.75C9.5 15.1642 9.16421 15.5 8.75 15.5C8.33579 15.5 8 15.1642 8 14.75ZM14 7.25C14 6.83579 14.3358 6.5 14.75 6.5C15.1642 6.5 15.5 6.83579 15.5 7.25C15.5 7.66421 15.1642 8 14.75 8C14.3358 8 14 7.66421 14 7.25ZM14 8.75C14 8.33579 14.3358 8 14.75 8C15.1642 8 15.5 8.33579 15.5 8.75C15.5 9.16421 15.1642 9.5 14.75 9.5C14.3358 9.5 14 9.16421 14 8.75ZM1.25 6.5C0.83579 6.5 0.5 6.83579 0.5 7.25C0.5 7.66421 0.83579 8 1.25 8C0.83579 8 0.5 8.33579 0.5 8.75C0.5 9.16421 0.83579 9.5 1.25 9.5C1.66421 9.5 2 9.16421 2 8.75C2 8.33579 1.66421 8 1.25 8C1.66421 8 2 7.66421 2 7.25C2 6.83579 1.66421 6.5 1.25 6.5Z" fill="#0C100A"/>
</svg>
