<svg xmlns="http://www.w3.org/2000/svg" viewBox="0 0 200 102" width="200" height="102"><g xmlns="http://www.w3.org/2000/svg" transform="matrix(0 -1 1 0 -0 102)"><path d="M48.6316 200C48.5091 199.918 48.4029 199.788 48.2722 199.755C46.5812 199.379 44.9636 198.815 43.4442 197.99C41.6388 197.018 40.1846 195.629 39.1716 193.865C38.322 192.378 37.6031 190.801 36.9169 189.225C36.6473 188.604 36.5575 187.877 36.4921 187.191C36.3614 185.884 36.198 184.568 36.2389 183.261C36.2715 182.077 36.5983 180.9 36.7127 179.708C36.9659 176.889 38.0443 174.349 39.3677 171.906C40.0294 170.689 40.8382 169.537 41.6796 168.426C42.6599 167.135 43.7301 165.918 44.7921 164.701C45.7234 163.639 46.6955 162.609 47.6677 161.588C49.0319 160.158 50.4125 158.753 51.785 157.332C52.218 156.883 52.5937 156.376 53.0512 155.968C54.0479 155.077 55.0935 154.26 56.082 153.37C56.4415 153.043 56.7192 152.618 56.9725 152.193C57.2257 151.785 56.9561 151.524 56.5722 151.54C55.9431 151.573 55.3141 151.711 54.6851 151.81C53.8273 151.94 52.9777 152.095 52.1199 152.21C51.3357 152.316 50.5433 152.463 49.7672 152.43C48.4274 152.365 47.0877 152.185 45.7479 152.014C44.7921 151.891 43.8363 151.744 42.905 151.532C41.9655 151.319 41.0506 150.993 40.1193 150.747C39.2288 150.511 38.322 150.323 37.4234 150.11C36.6147 149.922 35.8141 149.71 35.0053 149.53C33.4286 149.179 31.8601 149.081 30.2345 149.351C28.6415 149.612 27.3262 150.347 26.0763 151.278C25.0061 152.071 23.3886 152.006 22.8413 150.437C22.6615 149.914 22.4982 149.375 22.4573 148.828C22.392 148.035 22.4083 147.235 22.4491 146.434C22.5145 144.996 22.8739 143.648 23.7971 142.497C24.2382 141.941 24.663 141.353 25.1532 140.838C26.2479 139.694 26.256 138.649 25.3983 137.35C24.6222 136.182 23.9605 134.915 23.4131 133.625C22.9148 132.44 22.6207 131.158 22.2776 129.916C22.1305 129.401 22.0652 128.854 21.9998 128.323C21.8936 127.424 21.8365 126.517 21.7384 125.611C21.6812 125.096 21.5015 124.573 21.5342 124.067C21.5914 123.209 21.7711 122.351 21.9018 121.493C21.9998 120.881 22.0489 120.26 22.2041 119.672C22.6125 118.128 22.9883 116.559 23.5193 115.056C23.9686 113.806 24.5732 112.597 25.2104 111.421C26.0926 109.787 27.0239 108.186 28.0124 106.617C28.5271 105.808 29.2133 105.114 29.8178 104.362C30.9288 102.982 32.0562 101.609 33.1427 100.212C34.3191 98.7093 35.4955 97.1979 36.6147 95.654C38.2975 93.3175 39.5883 90.7606 40.6993 88.1137C41.459 86.3165 42.1289 84.4702 42.6517 82.5995C43.0112 81.3087 43.338 79.9853 43.2073 78.5965C43.1256 77.7469 42.9132 77.0117 42.2433 76.448C41.7613 76.0314 41.2956 76.0559 40.9199 76.5951C40.5196 77.1587 40.1356 77.7388 39.7517 78.3188C38.9347 79.5523 37.7502 80.0997 36.3206 80.1895C35.185 80.2631 34.0658 80.1895 33.0692 79.5605C31.7376 78.7191 30.7736 77.5835 30.4877 76.0069C30.3243 75.1001 30.2263 74.1606 30.2835 73.2457C30.3325 72.4532 30.5776 71.6445 30.8798 70.9011C31.1903 70.125 31.5987 69.3571 32.1052 68.6872C32.4728 68.1971 33.012 67.7477 33.5675 67.4863C35.0625 66.8083 36.6065 66.3508 38.3139 66.3263C40.3398 66.3018 42.2678 66.6285 44.065 67.4618C45.4293 68.099 46.7445 68.9078 47.5288 70.3374C47.9046 71.0318 48.4192 71.6445 48.844 72.3144C49.661 73.6133 50.1348 75.0592 50.2492 76.5787C50.3962 78.5067 50.5187 80.4509 50.4207 82.3789C50.3472 83.7677 49.8244 85.1238 49.6201 86.5126C49.277 88.7836 48.2068 90.8014 47.5125 92.9418C47.0223 94.4857 46.14 95.7928 45.3476 97.1571C44.8983 97.925 44.5062 98.7338 44.1467 99.5507C43.8281 100.286 44.4408 100.964 45.2577 100.768C46.4096 100.49 47.5451 100.482 48.697 100.776C49.4241 100.964 50.1675 101.078 50.9027 101.234C52.3323 101.528 53.5741 102.238 54.7668 103.039C55.7879 103.725 56.8499 104.395 57.7486 105.228C58.6798 106.094 59.5049 107.091 60.2402 108.128C61.3757 109.754 62.2662 111.535 62.7318 113.471C63.0504 114.819 63.3118 116.2 63.3935 117.58C63.4834 119.026 63.3935 120.497 63.2791 121.943C63.2301 122.629 63.0014 123.307 62.7645 123.96C62.2171 125.464 61.4329 126.795 60.3709 128.037C59.3661 129.197 58.2632 130.128 56.8908 130.741C54.5053 131.811 51.9647 132.171 49.4486 131.607C47.104 131.084 45.2904 129.712 44.596 127.187C44.2366 125.897 44.2611 124.581 44.4326 123.315C44.6124 121.959 45.4865 120.897 46.6302 120.096C47.9454 119.181 49.4241 118.994 50.9599 119.157C51.45 119.206 51.9239 119.427 52.4222 119.508C53.1819 119.639 53.9825 119.827 54.5544 119.067C54.7096 118.863 54.8158 118.593 54.8566 118.34C55.069 116.91 54.5707 115.718 53.5577 114.713C53.3453 114.5 53.2228 114.19 53.0104 113.961C51.1233 111.87 48.8767 110.44 46.0011 110.171C45.56 110.13 45.1352 109.983 44.6941 109.958C42.1452 109.779 39.8742 110.612 37.6603 111.788C36.2797 112.523 35.0543 113.43 34.0822 114.615C32.6934 116.314 31.6559 118.193 31.0596 120.366C30.5694 122.155 30.2998 123.928 30.4469 125.75C30.5449 127.032 30.888 128.29 31.1249 129.556C31.4599 131.386 32.3013 132.988 33.3306 134.507C34.1067 135.651 34.94 136.729 36.0428 137.587C36.4349 137.897 36.7045 138.347 37.064 138.698C38.2158 139.858 39.6455 140.618 41.1241 141.247C42.1289 141.68 43.1991 141.974 44.2693 142.202C45.3068 142.423 46.3688 142.472 47.4308 142.586C48.313 142.676 49.2035 142.848 50.0776 142.791C51.8994 142.668 53.7293 142.546 55.5183 142.055C57.6587 141.475 59.7337 140.74 61.6698 139.67C62.8625 139.008 63.9654 138.175 65.1254 137.44C66.1711 136.778 67.2494 136.174 68.2787 135.504C68.6055 135.291 68.8588 134.94 69.1202 134.621C70.4681 132.996 71.718 131.288 72.5104 129.311C73.1313 127.767 73.7766 126.232 74.2831 124.647C74.5609 123.797 74.5854 122.858 74.7079 121.959C74.855 120.93 75.0511 119.9 75.1164 118.871C75.1654 117.972 75.0592 117.057 75.0184 116.151C75.0102 115.955 74.953 115.767 74.9449 115.579C74.8713 113.618 74.4384 111.723 73.9727 109.819C73.4172 107.565 72.151 105.702 70.8521 103.848C69.8636 102.434 68.6055 101.315 67.037 100.654C65.9832 100.212 64.8068 100.082 63.6958 99.7549C62.6991 99.4608 61.5718 99.6079 60.7222 98.7664C59.8889 97.9414 59.799 96.9774 59.9461 95.9235C60.0523 95.1965 60.2075 94.4857 60.3464 93.7669C60.763 91.5693 60.6241 89.3473 60.5588 87.1497C60.5179 85.81 60.1666 84.4947 59.5948 83.2367C59.0393 82.0113 58.639 80.7124 58.0998 79.4706C57.8057 78.8008 57.3809 78.1881 57.0051 77.559C56.4415 76.6114 55.8778 75.6638 55.2896 74.7325C54.4972 73.4989 53.6721 72.2817 52.8797 71.0481C51.3602 68.6709 49.8489 66.2936 48.3539 63.9082C47.4144 62.4214 46.5076 60.9182 45.5682 59.4314C45.2659 58.9576 44.9228 58.5165 44.5797 58.0753C43.9098 57.2012 43.0112 57.479 41.9819 57.8874C40.348 58.541 38.7305 59.2109 37.0885 59.8481C36.3532 60.134 35.6017 60.3872 34.8419 60.616C34.2864 60.7794 33.7227 60.9182 33.1509 60.9999C32.3095 61.1225 31.468 61.2042 30.6184 61.2613C29.2296 61.3512 27.8409 61.5146 26.4521 61.4656C23.9114 61.3757 21.428 60.9101 19.3857 59.2762C18.5687 58.6227 17.907 57.7486 17.2617 56.9071C16.3385 55.6981 15.9954 54.293 16.0444 52.7735C16.0853 51.6298 16.0199 50.5106 16.4692 49.3996C16.9757 48.1415 17.7763 47.1612 18.8465 46.4014C19.4265 45.9848 20.0474 45.6009 20.7009 45.3394C21.2646 45.127 21.9018 45.0372 22.5063 45.0372C23.65 45.0372 24.7937 45.1679 25.8394 45.6744C27.1465 46.3034 27.849 47.4634 28.3147 48.7705C28.5434 49.4077 28.666 50.0776 28.8212 50.7312C29.0172 51.5726 30.0302 52.1281 31.0187 51.8177C32.7751 51.2785 34.556 50.8047 36.1735 49.9061C36.5085 49.7182 36.8597 49.5466 37.1865 49.3342C38.0361 48.7869 38.2567 47.8556 37.693 46.9488C36.6718 45.3068 35.618 43.6892 34.556 42.0799C33.5267 40.5196 32.4647 38.9756 31.4108 37.4234C30.4224 35.9693 29.4339 34.5233 28.4454 33.061C27.367 31.4599 26.305 29.8423 25.2104 28.2493C24.4016 27.073 23.5357 25.9374 22.7269 24.7529C21.8855 23.5275 21.0685 22.2858 20.2761 21.0277C19.2305 19.3775 18.2093 17.7191 17.2045 16.0363C16.9186 15.5625 16.7062 15.0233 16.5509 14.4923C16.3712 13.8551 16.9349 12.9156 17.6374 12.6787C18.1113 12.5235 18.6178 12.4091 19.1079 12.4091C22.2367 12.3846 25.3656 12.4255 28.4944 12.3846C31.8275 12.3438 35.1687 12.3846 38.4854 12.115C42.9295 11.7556 47.3654 12.0333 51.8095 11.9353C54.4155 11.8781 57.0215 11.9353 59.6193 11.919C60.1748 11.919 60.7222 11.7883 61.2777 11.7311C61.4656 11.7147 61.6698 11.7066 61.8577 11.7147C62.6665 11.7801 63.467 11.9108 64.2758 11.9108C69.0548 11.9271 73.842 11.8945 78.621 11.9353C79.8628 11.9435 81.1453 12.0415 82.338 12.3601C84.0046 12.8094 84.1353 13.8796 83.6941 15.2112C83.2448 16.5836 82.5668 17.8825 81.9214 19.1896C81.1535 20.7499 80.3693 22.3021 79.5115 23.8134C79.054 24.614 78.4331 25.3247 77.9021 26.0845C77.2731 26.9668 76.6604 27.8572 76.0477 28.7477C75.7046 29.2378 75.3615 29.728 75.0184 30.2181C74.1688 31.4353 73.3028 32.6444 72.4614 33.8616C71.3177 35.5118 70.0596 37.1048 69.0875 38.853C68.0908 40.6503 67.0043 42.4393 66.5305 44.4735C66.3671 45.1842 66.2691 45.9195 66.2528 46.6547C66.2119 48.3294 66.2936 50.0041 66.2119 51.6706C66.1792 52.267 65.8851 52.896 65.5829 53.4352C65.2806 53.9662 64.2758 54.1622 63.5079 53.7865C62.4786 53.28 61.4982 52.6591 60.5261 52.0464C60.0359 51.736 59.5785 51.3765 59.1537 50.9762C58.7942 50.6413 58.4593 50.2492 58.206 49.8244C57.7404 49.0401 56.5803 48.5418 55.7879 48.9829C54.6606 49.612 53.5659 50.3227 52.5284 51.0824C51.7441 51.6624 51.7523 52.1036 52.1281 53.0186C52.9042 54.8811 54.1541 56.4415 55.2488 58.108C55.886 59.072 56.4905 60.0686 57.1359 61.0326C57.626 61.7678 58.1162 62.5194 58.6962 63.1811C59.5049 64.0961 59.9134 64.1614 60.9999 63.6549C62.2907 63.0504 63.6386 62.8217 65.0519 62.8217C65.7136 62.8217 66.3753 62.7808 67.037 62.8298C68.7199 62.9524 70.3782 63.2465 71.9386 63.8755C73.4907 64.5045 74.0217 65.7953 73.4254 67.372C72.8617 68.8751 72.2653 70.3619 71.6526 71.8487C70.803 73.94 70.9011 76.0722 71.2033 78.2452C71.4402 79.9036 71.7752 81.5293 72.4206 83.0651C72.8862 84.168 73.5561 85.1728 74.0789 86.2511C74.7733 87.6808 75.4187 89.1267 76.0804 90.5727C76.7911 92.1167 77.5427 93.6525 78.1962 95.221C78.7191 96.4627 79.152 97.7535 79.585 99.0279C80.0425 100.359 80.4918 101.699 80.8921 103.055C81.4476 104.942 81.9704 106.838 82.4524 108.749C82.8282 110.203 83.1386 111.674 83.1631 113.202C83.1795 114.166 83.3184 115.121 83.3755 116.085C83.4654 117.531 83.6043 118.985 83.5798 120.431C83.5553 121.714 83.3429 122.996 83.1713 124.279C83.0488 125.178 82.9099 126.076 82.6975 126.95C82.4769 127.874 82.2073 128.78 81.8887 129.671C81.1862 131.656 80.4673 133.633 79.6912 135.594C79.0703 137.154 78.4495 138.722 77.6571 140.201C76.7012 141.966 75.5657 143.632 74.4956 145.323C73.8093 146.401 73.1149 147.472 72.3797 148.509C71.7507 149.391 71.0563 150.216 70.3864 151.066C69.6103 152.055 68.8424 153.035 68.0663 154.023C67.8948 154.236 67.7151 154.44 67.5272 154.636C66.2201 156.008 64.7986 157.299 63.6222 158.77C62.2416 160.502 60.6813 162.127 59.7582 164.178C59.1292 165.583 58.8596 167.062 59.2925 168.589C59.6765 169.953 59.1618 171.571 58.01 172.363C57.7486 172.543 57.3973 172.682 57.0868 172.69C55.8533 172.723 54.6034 172.919 53.4188 172.355C53.0512 172.184 52.6754 172.045 52.316 171.857C51.1478 171.244 50.0858 171.506 49.2362 172.772C48.1415 174.406 47.0141 176.04 46.0992 177.78C45.2496 179.389 44.7022 181.137 44.7758 183.008C44.8003 183.694 44.8084 184.389 44.7758 185.083C44.6859 186.839 45.5682 188.244 46.622 189.47C47.3817 190.352 48.4846 190.875 49.759 190.916C51.2948 190.965 52.7898 190.883 54.1051 189.984C54.4237 189.764 54.7259 189.462 54.922 189.127C55.2651 188.547 55.0282 188.04 54.3746 187.811C53.9172 187.656 53.4597 187.509 53.0022 187.338C50.9272 186.545 49.9224 184.985 49.612 182.82C49.4077 181.431 49.6446 180.165 50.3472 179.005C51.1559 177.682 52.2425 176.644 53.86 176.424C54.8485 176.285 55.8696 176.154 56.8499 176.244C57.5443 176.309 58.2632 176.652 58.8677 177.036C60.9264 178.351 62.3642 180.222 63.222 182.485C63.6876 183.702 63.8755 185.018 64.1451 186.3C64.2758 186.921 64.4147 187.575 64.3493 188.187C64.1696 189.756 63.9082 191.332 63.3036 192.803C63.1321 193.22 62.8462 193.628 62.5112 193.938C61.5146 194.845 60.9264 196.128 59.6602 196.798C58.7125 197.304 57.9364 198.137 56.9725 198.579C55.8451 199.093 54.5952 199.346 53.4025 199.722C53.2555 199.771 53.1247 199.886 52.9859 199.975C51.5481 199.975 50.1103 199.975 48.6725 199.975L48.6316 200ZM32.1461 19.9984V20.0637C31.9827 20.0637 31.8275 20.0637 31.6722 20.0637C30.6102 20.0392 30.1201 20.6437 30.7573 21.6894C31.852 23.5112 33.0283 25.2839 34.2047 27.0566C35.5445 29.0826 36.9251 31.0922 38.2894 33.1019C39.5556 34.9726 40.83 36.8434 42.1126 38.6978C43.0847 40.1111 44.0814 41.5162 45.0617 42.9295C45.5845 43.6811 46.4586 43.9752 47.1775 43.5585C48.1252 43.003 49.0646 42.4148 49.9877 41.8103C51.1069 41.0832 52.2261 40.348 53.3126 39.5719C54.6442 38.6161 55.9595 37.6276 57.2502 36.6228C57.8139 36.1899 58.2959 35.6589 58.8432 35.2095C59.7173 34.4825 60.6813 33.8534 61.4819 33.0692C62.9605 31.6151 64.3657 30.0874 65.7626 28.5679C66.3835 27.8899 66.9471 27.1465 67.5108 26.4112C68.2461 25.4473 68.9731 24.467 69.6757 23.4785C70.1168 22.8494 70.5335 22.1959 70.9256 21.5342C71.1707 21.1257 71.0399 20.7663 70.6152 20.5702C70.3211 20.4395 69.9943 20.317 69.6757 20.3251C69.2182 20.3251 68.7689 20.4885 68.3114 20.5294C67.1595 20.6274 65.9995 20.7009 64.8476 20.7826C64.7496 20.7826 64.6516 20.7908 64.5617 20.8153C63.4425 21.1012 62.3315 21.4443 61.2041 21.6567C59.3252 22.008 57.7894 23.0618 56.1801 23.9686C55.6654 24.2627 55.1834 24.6385 54.7504 25.0306C54.0397 25.676 53.3943 26.3867 52.6999 27.0403C52.1526 27.5468 51.4582 27.5468 50.8374 27.3017C49.4813 26.7789 48.3702 25.8802 47.4063 24.7937C47.3001 24.6794 47.2102 24.5405 47.0795 24.467C45.413 23.6174 43.7628 22.7269 42.0472 21.9753C41.0342 21.526 39.9232 21.2564 38.8367 21.0114C37.7257 20.7663 36.5901 20.6519 35.471 20.4804C34.3681 20.317 33.2653 20.1536 32.1624 19.9902L32.1461 19.9984Z" fill="black" /><path d="M100.531 0.0245076C100.572 0.0898617 100.596 0.187893 100.654 0.212401C102.23 0.882281 102.32 2.58149 101.413 4.10914C100.302 5.98807 98.7011 7.38502 97.1408 8.82281C96.2666 9.63157 95.3108 10.3586 94.4612 11.1919C93.2032 12.4173 91.5693 11.9761 90.6462 10.5138C90.1479 9.73777 89.674 8.92084 88.8326 8.44702C88.4732 8.25096 88.0484 8.0549 87.6562 8.0549C84.9522 8.02222 82.2563 8.02222 79.5523 8.04673C78.0002 8.0549 76.448 8.14476 74.8958 8.14476C68.4094 8.15293 61.923 8.15293 55.4366 8.14476C54.0806 8.14476 52.7245 8.03856 51.3602 8.03856C38.9266 8.07124 26.4848 8.10391 14.0511 8.15293C12.9891 8.15293 12.0742 8.56139 11.2899 9.29663C10.6446 9.90115 9.98284 10.5057 9.24761 10.9958C8.16927 11.7147 7.02557 11.1756 6.36386 10.5138C4.55028 8.70844 2.7367 6.90303 0.939465 5.07311C0.580018 4.71367 0.310432 4.26436 0 3.85589C0 3.3494 0 2.84291 0 2.33641C0.147047 2.24655 0.285924 2.14852 0.44114 2.07499C1.04567 1.78907 1.62568 1.33976 2.25472 1.25807C3.62715 1.07017 5.0241 0.996651 6.41287 0.988481C11.3471 0.955804 16.2813 0.988481 21.2238 0.963973C21.9508 0.963973 22.6779 0.825096 23.405 0.767911C23.6745 0.743403 23.9523 0.751572 24.2137 0.77608C24.7856 0.833265 25.3574 0.963974 25.9293 0.955804C26.5256 0.955804 27.1138 0.751572 27.702 0.759742C28.5434 0.759742 29.393 0.939466 30.2345 0.931296C31.1984 0.931296 32.1542 0.767911 33.1182 0.743403C40.8218 0.588187 48.5254 0.931296 56.2291 0.539172C62.0783 0.236909 67.9438 0.66988 73.8012 0.318601C77.5754 0.0898618 81.3741 0.277755 85.1646 0.261416C85.4587 0.261416 85.7528 0.0898619 86.0469 0C90.8668 0 95.6866 0 100.506 0L100.531 0.0245076Z" fill="black" /></g></svg>