<svg width="15" height="16" viewBox="0 0 15 16" fill="none" xmlns="http://www.w3.org/2000/svg">
<path d="M14.1123 5.74303C14.1123 5.84041 14.1142 5.93779 14.1116 6.03517C14.1103 6.08157 14.0992 6.12732 14.0926 6.17307C14.0907 6.18549 14.0868 6.19726 14.0874 6.20967C14.09 6.32731 14.0632 6.44104 14.0391 6.55541C14.0364 6.56717 14.0332 6.57959 14.0292 6.59136C13.9796 6.7371 13.9358 6.88481 13.8789 7.02729C13.8364 7.13251 13.7763 7.23054 13.726 7.3325C13.6508 7.48544 13.5469 7.61811 13.4397 7.74882C13.3868 7.81353 13.3247 7.87039 13.258 7.92137C13.2469 7.92986 13.2352 7.93705 13.226 7.94685C13.1678 8.01156 13.0927 8.05665 13.0299 8.11547C12.9398 8.19913 12.8339 8.26122 12.7398 8.33834C12.6718 8.3939 12.6025 8.44814 12.5319 8.49977C12.4855 8.53376 12.4339 8.56055 12.3875 8.59454C12.2757 8.67624 12.16 8.7527 12.0614 8.85074C12.0215 8.88995 11.9797 8.92786 11.9372 8.96446C11.828 9.06053 11.764 9.18471 11.7104 9.31738C11.679 9.39516 11.6666 9.47555 11.6535 9.55659C11.6503 9.57685 11.6483 9.59842 11.6522 9.61803C11.6686 9.70103 11.6771 9.78665 11.7156 9.86442C11.7405 9.91475 11.7633 9.96572 11.7882 10.016C11.8189 10.0788 11.8692 10.1258 11.915 10.1768C11.9221 10.1847 11.9306 10.1925 11.9378 10.2004C11.9718 10.2396 11.9659 10.2736 11.9202 10.2964C11.9097 10.3017 11.8967 10.3056 11.8849 10.3069C11.7437 10.32 11.6019 10.3258 11.462 10.3062C11.3797 10.2945 11.2986 10.269 11.2228 10.2324C11.1751 10.2089 11.13 10.1794 11.0849 10.1513C11.0431 10.1258 11.0006 10.1004 10.9601 10.0723C10.9359 10.0553 10.9143 10.033 10.8941 10.0115C10.8496 9.96507 10.8052 9.91801 10.7627 9.86965C10.7412 9.84481 10.7229 9.81736 10.7039 9.79057C10.6366 9.69645 10.5784 9.59711 10.551 9.48339C10.515 9.33699 10.483 9.18863 10.4791 9.03766C10.4778 8.99648 10.4908 8.95335 10.5033 8.91283C10.5294 8.8259 10.5595 8.74094 10.5869 8.65467C10.6013 8.60892 10.6235 8.5697 10.6568 8.53506C10.6967 8.49324 10.7327 8.44814 10.7712 8.40566C10.8327 8.33769 10.8974 8.27233 10.9699 8.21612C10.9993 8.19325 11.0313 8.17495 11.0621 8.15403C11.0732 8.14619 11.0849 8.13835 11.0954 8.12985C11.1281 8.10044 11.1248 8.07234 11.0862 8.05208C11.0555 8.03639 11.0248 8.02202 10.9934 8.00829C10.8608 7.94947 10.7542 7.86058 10.6751 7.73771C10.6523 7.70242 10.6242 7.66974 10.5967 7.63772C10.5431 7.57367 10.5065 7.50047 10.4771 7.42335C10.4438 7.33446 10.4091 7.24623 10.3967 7.15146C10.3921 7.11617 10.3863 7.08022 10.3902 7.04559C10.3961 6.99069 10.3987 6.93709 10.3954 6.88219C10.3889 6.77632 10.415 6.67501 10.4634 6.58025C10.4921 6.52404 10.5235 6.46914 10.5536 6.41424C10.5588 6.40444 10.5634 6.39398 10.5706 6.38614C10.6483 6.2979 10.7137 6.19726 10.8111 6.12732C10.8621 6.09072 10.915 6.05543 10.9712 6.02733C11.0673 5.97962 11.1653 5.93714 11.264 5.89596C11.298 5.88158 11.3352 5.8757 11.3718 5.86982C11.4084 5.86394 11.4457 5.86198 11.4823 5.85871C11.5065 5.85675 11.5294 5.86001 11.5437 5.88354C11.5575 5.90642 11.5509 5.92995 11.5378 5.94955C11.5137 5.98615 11.4875 6.02145 11.462 6.05739C11.4418 6.0868 11.4222 6.11687 11.4006 6.14497C11.3529 6.20771 11.3267 6.2796 11.3084 6.35476C11.2941 6.4162 11.2856 6.47894 11.2771 6.54103C11.2738 6.56391 11.2738 6.58809 11.2784 6.61031C11.3006 6.71488 11.3248 6.81945 11.3836 6.9116C11.4777 7.05996 11.6084 7.15669 11.7784 7.20113C11.8535 7.22074 11.93 7.23251 12.0065 7.2227C12.0738 7.21355 12.1417 7.19656 12.2058 7.17368C12.2738 7.14885 12.3385 7.11486 12.4025 7.08088C12.4339 7.06454 12.4613 7.04101 12.4888 7.01814C12.5907 6.93448 12.6907 6.84886 12.7718 6.74429C12.8123 6.69201 12.8561 6.64299 12.8947 6.59005C12.9456 6.52012 12.9868 6.44496 13.0162 6.36261C13.077 6.19268 13.1306 6.02079 13.1541 5.84237C13.1718 5.70839 13.1881 5.57244 13.1724 5.4365C13.1678 5.39729 13.1659 5.35742 13.1633 5.31755C13.158 5.23782 13.1384 5.1607 13.1162 5.08423C13.0881 4.9862 13.0469 4.89339 13.0038 4.80189C12.9724 4.73457 12.9424 4.6666 12.9058 4.60255C12.8737 4.547 12.8345 4.49537 12.7973 4.44243C12.7509 4.37772 12.6947 4.32086 12.6391 4.264C12.5894 4.21303 12.543 4.15878 12.4934 4.10715C12.445 4.05617 12.4012 3.99996 12.3457 3.95879C12.2483 3.88755 12.1692 3.79409 12.0607 3.73657C11.9967 3.70259 11.9339 3.66599 11.8705 3.63004C11.8215 3.60259 11.7738 3.57318 11.7228 3.54835C11.6849 3.53005 11.6444 3.51632 11.6045 3.5026C11.5548 3.48561 11.5039 3.47449 11.4555 3.45554C11.3947 3.43136 11.33 3.42678 11.2666 3.41502C11.1941 3.40129 11.1209 3.39018 11.0477 3.38103C10.981 3.37319 10.9137 3.3647 10.847 3.3647C10.7196 3.3647 10.5915 3.36731 10.4647 3.3745C10.4078 3.37777 10.3516 3.39476 10.2954 3.40587C10.285 3.40783 10.2745 3.41241 10.2634 3.41371C10.1386 3.43397 10.0177 3.46992 9.8987 3.51305C9.81113 3.54508 9.7242 3.57841 9.63989 3.61763C9.57192 3.64965 9.50656 3.68821 9.44317 3.72873C9.34383 3.79213 9.24448 3.85618 9.15037 3.92676C9.06802 3.9882 8.9922 4.05813 8.91574 4.12675C8.86541 4.1712 8.81705 4.2176 8.7713 4.26662C8.71836 4.32217 8.66804 4.38034 8.61836 4.43916C8.58373 4.47968 8.5517 4.52282 8.51837 4.56464C8.5151 4.56922 8.51118 4.57314 8.50857 4.57772C8.46216 4.66922 8.39288 4.74699 8.35302 4.84372C8.31903 4.92737 8.27394 5.00646 8.23015 5.08619C8.16806 5.19991 8.12427 5.32082 8.08244 5.44304C8.04192 5.56068 8.01774 5.68159 7.99225 5.80185C7.97329 5.89269 7.96741 5.98681 7.96153 6.07961C7.955 6.17373 7.95565 6.26849 7.95303 6.36326C7.95303 6.3881 7.95434 6.41293 7.95434 6.43711C7.95434 6.47698 7.9746 6.50051 8.01185 6.51227C8.06153 6.52861 8.10989 6.54887 8.16021 6.56195C8.2576 6.58678 8.34125 6.63972 8.42622 6.6907C8.48831 6.72795 8.55039 6.76651 8.61183 6.80507C8.62555 6.81357 8.63928 6.82337 8.65104 6.83448C8.73993 6.91618 8.82359 7.0031 8.89482 7.10179C8.93338 7.15473 8.97652 7.20506 9.01508 7.25799C9.0373 7.28871 9.0556 7.32335 9.07259 7.35799C9.10331 7.42073 9.13468 7.48348 9.16017 7.54883C9.18632 7.61615 9.20984 7.68543 9.22749 7.75601C9.2471 7.83444 9.2654 7.91418 9.27063 7.99457C9.27978 8.13247 9.27781 8.27168 9.28174 8.41023C9.28304 8.46905 9.2654 8.52395 9.24906 8.57951C9.22292 8.66643 9.19677 8.7527 9.16671 8.83832C9.14841 8.88995 9.12096 8.93766 9.09808 8.98799C9.04645 9.10432 8.97587 9.2102 8.89417 9.30562C8.77391 9.44614 8.63666 9.5677 8.46935 9.65201C8.38504 9.69449 8.30138 9.73959 8.21642 9.78142C8.18963 9.79449 8.16021 9.80364 8.13146 9.81213C8.07394 9.82782 8.05499 9.85135 8.05303 9.91148C8.05107 9.9788 8.04715 10.0455 8.0478 10.1128C8.04911 10.3187 8.05172 10.5245 8.05368 10.7304C8.05368 10.7801 8.05303 10.8291 8.05368 10.8788C8.05499 10.931 8.05826 10.9827 8.06022 11.035C8.06022 11.0461 8.06218 11.0572 8.06218 11.0676C8.06479 11.2546 8.06741 11.4408 8.07068 11.6277C8.07198 11.7114 8.07329 11.7951 8.07852 11.8787C8.08179 11.9323 8.09159 11.9846 8.09747 12.0382C8.10466 12.1035 8.11316 12.1689 8.11708 12.2349C8.12231 12.3199 8.13473 12.4042 8.15368 12.4872C8.16283 12.5271 8.16348 12.5689 8.17329 12.6087C8.20989 12.7578 8.24452 12.9081 8.28831 13.0551C8.32491 13.18 8.37066 13.3028 8.41707 13.4244C8.43798 13.4793 8.47131 13.529 8.49942 13.5806C8.54778 13.6701 8.59484 13.7597 8.64516 13.8479C8.70137 13.9466 8.75235 14.0492 8.82293 14.1388C8.853 14.1773 8.8896 14.2119 8.92162 14.2485C8.93861 14.2682 8.9543 14.2891 8.96933 14.31C8.9824 14.3276 8.99351 14.3466 9.00789 14.3629C9.04449 14.4034 9.0458 14.4675 8.97521 14.4943C8.8909 14.5263 8.80725 14.5662 8.73731 14.623C8.65562 14.6891 8.5615 14.74 8.49223 14.8224C8.46608 14.8531 8.42687 14.8721 8.39485 14.8969C8.31576 14.9577 8.22884 15.0113 8.16675 15.0903C8.09682 15.1799 8.0197 15.2642 7.96218 15.3635C7.92624 15.425 7.88376 15.4825 7.84912 15.5439C7.82493 15.5864 7.80598 15.6328 7.78964 15.6792C7.755 15.7779 7.70599 15.87 7.65762 15.9622C7.65305 15.9707 7.64782 15.9792 7.64128 15.9857C7.62037 16.0073 7.59553 16.004 7.57985 15.9785C7.57527 15.9707 7.572 15.9609 7.56939 15.9517C7.55893 15.9132 7.54651 15.8753 7.53998 15.8361C7.52299 15.7295 7.48835 15.6295 7.43998 15.5328C7.36482 15.3838 7.27921 15.242 7.1766 15.1113C7.13281 15.0557 7.08117 15.0054 7.02954 14.9557C6.96876 14.8962 6.90798 14.8361 6.84066 14.7845C6.7557 14.7198 6.66355 14.6642 6.56616 14.6191C6.53871 14.6067 6.51388 14.5897 6.48577 14.5779C6.44787 14.5616 6.40931 14.5485 6.37075 14.5348C6.32957 14.5198 6.28774 14.5067 6.24722 14.4897C6.19102 14.4662 6.17664 14.4119 6.21258 14.3616C6.24199 14.3204 6.27337 14.2806 6.30343 14.2401C6.31258 14.2283 6.31977 14.2152 6.32761 14.2021C6.34264 14.1773 6.35506 14.1512 6.37205 14.1276C6.44787 14.0198 6.508 13.9022 6.57139 13.7871C6.59688 13.7414 6.62302 13.6969 6.64917 13.6518C6.65505 13.6414 6.66224 13.6309 6.66747 13.6198C6.72367 13.495 6.78184 13.3702 6.83543 13.244C6.85308 13.2028 6.85896 13.1571 6.87007 13.1126C6.88641 13.0473 6.9021 12.9819 6.91909 12.9172C6.92563 12.8917 6.93674 12.8682 6.94197 12.8427C6.957 12.7689 6.97203 12.695 6.98445 12.6205C6.99556 12.5512 7.00405 12.482 7.0119 12.4127C7.02039 12.3388 7.02758 12.2656 7.03477 12.1918C7.04523 12.0839 7.05569 11.9761 7.06549 11.8683C7.07006 11.8192 7.07268 11.7696 7.07595 11.7206C7.09032 11.5016 7.09817 11.282 7.0949 11.0624C7.09359 10.9552 7.0949 10.848 7.09229 10.7415C7.09098 10.6827 7.08379 10.6239 7.08052 10.565C7.07856 10.5239 7.07856 10.4833 7.07791 10.4422C7.07725 10.3075 7.0766 10.1729 7.0766 10.0383C7.0766 10.0069 7.07856 9.97487 7.08248 9.94416C7.09163 9.86181 7.06288 9.81083 6.98641 9.77815C6.91059 9.74613 6.83478 9.71345 6.75897 9.68208C6.6923 9.65463 6.63283 9.61607 6.57727 9.57162C6.52826 9.53176 6.47728 9.4945 6.42892 9.45463C6.40343 9.43372 6.38251 9.40823 6.35833 9.38536C6.33153 9.35987 6.30343 9.33569 6.27729 9.30954C6.2616 9.29451 6.24657 9.27752 6.23481 9.25922C6.17991 9.1736 6.12174 9.08994 6.07468 9.0004C6.02436 8.90498 5.97534 8.8063 5.94331 8.70368C5.9139 8.60957 5.88123 8.51284 5.88319 8.41089C5.88319 8.39716 5.87992 8.38344 5.87861 8.37037C5.86946 8.29978 5.85443 8.2292 5.85182 8.15861C5.8492 8.08345 5.85835 8.00829 5.86227 7.93248C5.86227 7.92267 5.86554 7.91352 5.86489 7.90372C5.86293 7.78216 5.89626 7.66778 5.94005 7.55667C5.97599 7.46648 6.01063 7.37498 6.05246 7.28741C6.07926 7.23251 6.11782 7.18283 6.1518 7.1312C6.19036 7.07173 6.24461 7.02729 6.29755 6.98154C6.36225 6.92598 6.42499 6.86912 6.491 6.81488C6.53675 6.77762 6.58512 6.74364 6.63217 6.709C6.70341 6.65737 6.78119 6.61619 6.85896 6.57632C6.90602 6.5528 6.95961 6.54103 7.01059 6.526C7.06876 6.50901 7.07987 6.49593 7.07464 6.43581C7.0668 6.343 7.05961 6.25019 7.0498 6.15739C7.04523 6.11817 7.03477 6.07961 7.02628 6.0404C7.00667 5.94498 6.98575 5.84956 6.9668 5.75414C6.96026 5.7208 6.95896 5.68551 6.95046 5.65283C6.91321 5.50382 6.87007 5.35677 6.81125 5.21429C6.77531 5.12671 6.74328 5.03783 6.69492 4.95613C6.63479 4.85483 6.58316 4.7483 6.50865 4.65614C6.47336 4.61236 6.44656 4.56203 6.40931 4.5202C6.33676 4.43655 6.25964 4.35616 6.18448 4.27446C6.16357 4.25093 6.14396 4.22675 6.12305 4.20257C6.11128 4.1895 6.10017 4.17512 6.08645 4.16335C6.02828 4.11368 5.96815 4.06597 5.91064 4.01499C5.81456 3.93003 5.70999 3.85683 5.60542 3.78494C5.48909 3.70455 5.36033 3.64377 5.22831 3.5941C5.1525 3.56534 5.07668 3.53789 4.99956 3.51305C4.9329 3.49214 4.86493 3.4758 4.79761 3.45816C4.73095 3.44116 4.66428 3.42482 4.59762 3.40914C4.57474 3.40391 4.55187 3.39803 4.529 3.39607C4.42704 3.38757 4.32508 3.3745 4.22182 3.39084C4.10026 3.40979 3.97739 3.42286 3.85451 3.43855C3.84798 3.4392 3.84079 3.4392 3.83425 3.44116C3.74994 3.46992 3.66106 3.46665 3.57479 3.48299C3.51727 3.4941 3.46041 3.51175 3.40486 3.53135C3.27153 3.57841 3.14343 3.63854 3.02122 3.71043C2.92187 3.7686 2.82711 3.83396 2.73626 3.9052C2.63169 3.98755 2.52973 4.07316 2.43889 4.17054C2.35785 4.25747 2.27746 4.34635 2.21471 4.44896C2.2023 4.46857 2.18661 4.48622 2.17419 4.50582C2.12975 4.57314 2.084 4.6398 2.04152 4.70908C2.02322 4.73915 2.00949 4.77248 1.99577 4.80581C1.96113 4.88751 1.90754 4.96136 1.89054 5.0509C1.88466 5.08162 1.86898 5.10972 1.85787 5.13978C1.83107 5.21298 1.82584 5.2901 1.818 5.36592C1.80885 5.45742 1.80231 5.54892 1.79578 5.64042C1.79447 5.65937 1.79447 5.67898 1.79578 5.69793C1.8082 5.81557 1.83042 5.93125 1.86179 6.04563C1.87878 6.10772 1.89054 6.17177 1.9095 6.2332C1.94283 6.34104 1.98858 6.44365 2.04152 6.54365C2.07943 6.61488 2.11864 6.68612 2.16243 6.75409C2.21602 6.83775 2.28334 6.9103 2.3585 6.97565C2.41732 7.02663 2.48072 7.07369 2.54411 7.11879C2.63888 7.18676 2.74672 7.22662 2.85978 7.25538C2.91272 7.2691 2.96632 7.26453 3.01926 7.26714C3.1284 7.27368 3.22709 7.24362 3.32447 7.19656C3.3761 7.17107 3.4297 7.15081 3.47479 7.11356C3.50551 7.08807 3.53753 7.06519 3.56956 7.04166C3.59766 7.02075 3.61858 6.99461 3.63492 6.96324C3.64864 6.93644 3.66433 6.91095 3.67936 6.88481C3.72642 6.80311 3.74275 6.71488 3.73099 6.62273C3.72119 6.54691 3.71008 6.46979 3.68785 6.39659C3.65322 6.28418 3.61204 6.17307 3.531 6.08223C3.50289 6.05086 3.4761 6.01752 3.4493 5.98485C3.44473 5.97962 3.44015 5.97439 3.43623 5.96916C3.40747 5.92799 3.42316 5.89008 3.47283 5.88943C3.52904 5.88877 3.58524 5.89204 3.6408 5.89792C3.714 5.90576 3.78131 5.93256 3.84536 5.96981C3.90811 6.00641 3.97085 6.04236 4.0349 6.07765C4.14078 6.13582 4.22705 6.21817 4.31266 6.30183C4.33227 6.32078 4.35319 6.33908 4.37345 6.35738C4.38325 6.36653 4.39436 6.37568 4.40155 6.38679C4.46233 6.4809 4.52638 6.57436 4.56756 6.67959C4.57344 6.69462 4.57932 6.71031 4.58259 6.72664C4.60023 6.82403 4.62311 6.92075 4.63291 7.01814C4.63879 7.07957 4.62572 7.14362 4.61853 7.20636C4.61331 7.25669 4.60546 7.30701 4.59631 7.35668C4.59108 7.38609 4.5852 7.41681 4.57278 7.44361C4.53553 7.52465 4.49501 7.60373 4.4558 7.68412C4.44861 7.69915 4.4388 7.71288 4.43292 7.72791C4.38129 7.85209 4.28456 7.9364 4.17868 8.01221C4.12967 8.0475 4.07673 8.07691 4.0264 8.10959C4.01725 8.11548 4.00876 8.12266 4.00157 8.13116C3.98719 8.14815 3.98784 8.16188 4.00222 8.17887C4.00745 8.18541 4.01398 8.19064 4.02052 8.19521C4.10679 8.25338 4.17476 8.32919 4.23489 8.41415C4.28979 8.49128 4.3473 8.56644 4.39567 8.64813C4.44142 8.72525 4.48129 8.80433 4.50024 8.89322C4.51788 8.97492 4.53815 9.05596 4.55514 9.13765C4.57017 9.20759 4.55645 9.27686 4.54795 9.3468C4.54403 9.3834 4.53684 9.41999 4.529 9.45594C4.52181 9.48927 4.51266 9.5226 4.50285 9.55528C4.49174 9.59188 4.47867 9.62848 4.46625 9.66443C4.46102 9.67881 4.45645 9.69319 4.44861 9.70626C4.36626 9.84612 4.27541 9.97945 4.15908 10.0945C4.07999 10.1723 3.99242 10.2383 3.89242 10.2853C3.80288 10.3271 3.70877 10.3559 3.60747 10.3611C3.55845 10.3637 3.50943 10.3762 3.46041 10.3788C3.37153 10.384 3.28199 10.3801 3.19506 10.3592C3.18199 10.3559 3.16892 10.3494 3.15847 10.3415C3.12579 10.3186 3.11598 10.2879 3.13363 10.252C3.1552 10.2089 3.17611 10.1651 3.20487 10.1272C3.24735 10.0703 3.27676 10.0069 3.3029 9.94219C3.3395 9.85004 3.36891 9.75593 3.36303 9.65463C3.35323 9.48862 3.31075 9.33307 3.22121 9.1919C3.19637 9.15269 3.16239 9.1187 3.1382 9.07949C3.10553 9.02785 3.06239 8.98603 3.02056 8.94289C3.00814 8.92982 2.99573 8.91609 2.98135 8.90695C2.94671 8.88407 2.92057 8.85205 2.89181 8.82329C2.85717 8.78865 2.816 8.75989 2.77613 8.73114C2.73038 8.69846 2.68463 8.66709 2.6428 8.62787C2.61012 8.59715 2.5696 8.57493 2.53365 8.54748C2.42255 8.46187 2.31144 8.3769 2.2023 8.28932C2.12648 8.22854 2.05263 8.16515 1.98139 8.09914C1.91473 8.0377 1.85264 7.97234 1.78859 7.90829C1.75526 7.87562 1.71931 7.84555 1.68925 7.81091C1.62258 7.73445 1.55723 7.65667 1.49318 7.57759C1.4422 7.51485 1.39122 7.45145 1.34612 7.38479C1.29972 7.31551 1.26116 7.241 1.21933 7.16846C1.17031 7.08415 1.12456 6.99853 1.086 6.90899C1.04091 6.80573 1.00627 6.69919 0.976858 6.59005C0.945487 6.47306 0.921305 6.35477 0.89843 6.23647C0.885359 6.16915 0.882091 6.10053 0.876862 6.0319C0.871634 5.95936 0.87098 5.88681 0.867712 5.81426C0.865752 5.7744 0.859216 5.73518 0.860523 5.69532C0.863137 5.59663 0.869019 5.49794 0.873594 5.39925C0.874901 5.37572 0.874902 5.35285 0.874902 5.32932C0.873594 5.2535 0.878823 5.179 0.897123 5.10449C0.910848 5.04698 0.91869 4.98881 0.928494 4.92999C0.944833 4.82673 0.975551 4.72673 1.00823 4.62804C1.04614 4.51367 1.09711 4.40387 1.13829 4.29015C1.18861 4.1542 1.26835 4.03329 1.3324 3.90454C1.37161 3.82611 1.4252 3.75618 1.47814 3.6856C1.52716 3.62089 1.58206 3.56142 1.63761 3.50325C1.70166 3.43593 1.76375 3.366 1.83172 3.30195C1.89316 3.24379 1.96178 3.19215 2.02714 3.13856C2.05786 3.11307 2.08858 3.08758 2.1206 3.06471C2.20295 3.00523 2.28465 2.94511 2.36896 2.88824C2.49902 2.80067 2.63626 2.72681 2.78005 2.66407C2.92645 2.60002 3.07612 2.54839 3.23036 2.50722C3.33362 2.47977 3.43558 2.44578 3.54015 2.42421C3.68916 2.39349 3.84079 2.37519 3.99372 2.37127C4.08326 2.36931 4.17215 2.36866 4.26103 2.37454C4.35972 2.38173 4.45841 2.38957 4.55579 2.40199C4.62507 2.41114 4.69304 2.42944 4.76167 2.44186C4.91591 2.46931 5.06623 2.51375 5.21459 2.56211C5.31981 2.5961 5.42111 2.64446 5.52438 2.68499C5.62437 2.7242 5.71522 2.78237 5.80868 2.83335C5.85639 2.85949 5.89887 2.89609 5.94201 2.92942C6.00214 2.97713 6.06161 3.02615 6.11978 3.07582C6.17795 3.12549 6.23546 3.17647 6.29232 3.2281C6.37205 3.3013 6.45114 3.37581 6.53022 3.44966C6.55636 3.47384 6.58316 3.49737 6.60734 3.52417C6.63217 3.55162 6.65374 3.58168 6.67596 3.61109C6.68642 3.62547 6.69361 3.64311 6.70668 3.65488C6.79295 3.732 6.85177 3.82938 6.9119 3.92611C6.91844 3.93657 6.92563 3.94702 6.93478 3.95552C6.95504 3.97447 6.97334 3.96859 6.97922 3.94179C6.97987 3.93787 6.98053 3.9333 6.98053 3.92938C6.98118 3.81827 6.99294 3.70782 6.98379 3.59606C6.9753 3.48822 6.98183 3.37907 6.98053 3.27058C6.97922 3.17059 6.9753 3.07059 6.97334 2.97059C6.97334 2.94445 6.97856 2.91896 6.97856 2.89282C6.97726 2.78041 6.9753 2.66799 6.97334 2.55558C6.97334 2.54904 6.97203 2.54185 6.97203 2.53532C6.96942 2.35559 6.96549 2.17586 6.96615 1.99613C6.96615 1.92881 6.97072 1.86214 6.96615 1.79483C6.96288 1.74712 6.96811 1.69875 6.97138 1.65104C6.97464 1.5968 6.95242 1.5602 6.90929 1.52556C6.80406 1.44255 6.68838 1.3772 6.57727 1.30465C6.52891 1.27328 6.48251 1.23864 6.43414 1.20727C6.38578 1.1759 6.33545 1.1478 6.28709 1.11642C6.25833 1.09812 6.23088 1.07721 6.20278 1.0576C6.19167 1.04976 6.18056 1.04192 6.16814 1.03473C6.13742 1.01643 6.10605 1.00009 6.07534 0.981136C5.94789 0.900747 5.8211 0.819705 5.69431 0.738009C5.58908 0.670691 5.48451 0.603374 5.38059 0.534096C5.25053 0.447171 5.12178 0.358286 4.99237 0.270708C4.93813 0.234109 4.88127 0.200123 4.82702 0.163523C4.80676 0.149798 4.7865 0.134766 4.77082 0.116466C4.7401 0.0818274 4.75448 0.0406527 4.80023 0.0295421C4.81591 0.0256206 4.8329 0.0262742 4.84924 0.0262742C4.93421 0.0262742 5.01917 0.0262742 5.10413 0.0262742C5.13551 0.0262742 5.16753 0.0249671 5.1989 0.0249671C5.5185 0.0223528 5.83874 0.0249671 6.15834 0.01451C6.51126 0.0027458 6.86354 0.00143868 7.21646 0.000131541C7.44587 -0.000522026 7.67527 0.00143866 7.90402 0.00209223C8.05368 0.00209223 8.20335 0.000131541 8.35236 0.000131541C8.49942 0.000131541 8.64647 0.00143866 8.79287 0.00209223C8.94515 0.00209223 9.09743 0.000785091 9.24971 0.00209223C9.45166 0.00405293 9.65296 0.00797434 9.85491 0.0105886C9.90262 0.0105886 9.95099 0.00732076 9.9987 0.00862789C10.0301 0.00993503 10.0621 0.01451 10.0915 0.0230064C10.1333 0.0347706 10.1418 0.0713703 10.1111 0.101434C10.0895 0.122349 10.0654 0.141302 10.0405 0.157641C9.91439 0.23803 9.78956 0.319726 9.6693 0.408611C9.63532 0.4341 9.59806 0.454361 9.56212 0.477236C9.55035 0.484425 9.53859 0.49096 9.52748 0.498803C9.468 0.540632 9.40918 0.583767 9.34971 0.625595C9.25167 0.69422 9.15364 0.761537 9.0556 0.829508C8.98828 0.876565 8.92097 0.924275 8.853 0.971332C8.82359 0.991593 8.79287 1.00989 8.76346 1.03015C8.74646 1.04192 8.73078 1.05499 8.71444 1.06741C8.68437 1.09094 8.65496 1.11577 8.62425 1.13799C8.56216 1.18309 8.49876 1.22622 8.43602 1.27001C8.42491 1.27786 8.41445 1.28701 8.40203 1.29289C8.2955 1.34779 8.19877 1.41772 8.1027 1.4883C8.07852 1.50595 8.05238 1.52164 8.02754 1.53863C8.00924 1.55105 7.99094 1.56281 7.9746 1.57719C7.95107 1.5981 7.93931 1.6249 7.93931 1.65758C7.93996 1.80594 7.93931 1.9543 7.94127 2.10266C7.94454 2.33206 7.93996 2.56081 7.93735 2.79021C7.93604 2.9438 7.94323 3.09739 7.94846 3.25032C7.95238 3.35751 7.95892 3.46404 7.9661 3.57057C7.96807 3.60325 7.97852 3.63527 7.98048 3.66795C7.98506 3.74442 7.98702 3.82154 7.98898 3.89801C7.99029 3.93657 7.98898 3.97513 7.98898 4.01303C7.98898 4.02414 7.98898 4.03591 7.99225 4.04571C7.99617 4.05486 8.00401 4.06728 8.01185 4.06859C8.0197 4.06989 8.03081 4.0614 8.038 4.05421C8.04453 4.04767 8.0478 4.03787 8.05172 4.02937C8.09616 3.93983 8.14126 3.85095 8.1857 3.76076C8.22819 3.67514 8.28962 3.60325 8.34583 3.52678C8.44713 3.38757 8.56085 3.26012 8.68242 3.13921C8.69222 3.12941 8.70333 3.12026 8.71052 3.10915C8.74581 3.05164 8.80202 3.01569 8.85234 2.97255C8.86999 2.95752 8.88633 2.94053 8.90528 2.92746C8.94842 2.89609 8.9909 2.86341 9.0373 2.83661C9.1471 2.77191 9.25821 2.70851 9.37062 2.64904C9.47977 2.59153 9.59479 2.54447 9.71505 2.51375C9.79609 2.49284 9.87844 2.4778 9.96014 2.46016C10.0177 2.44774 10.0752 2.43467 10.1333 2.4229C10.168 2.41572 10.2033 2.40918 10.2386 2.40395C10.3268 2.39023 10.4137 2.37193 10.5039 2.37258C10.6601 2.37323 10.817 2.36735 10.9732 2.3667C11.0496 2.3667 11.1268 2.36997 11.2032 2.37585C11.2673 2.38108 11.3307 2.39284 11.3947 2.40134C11.5307 2.41964 11.6659 2.44513 11.7986 2.47911C11.8927 2.50264 11.9875 2.52682 12.0803 2.55623C12.2045 2.5961 12.3254 2.64577 12.4391 2.71047C12.5247 2.75949 12.6097 2.80982 12.6907 2.86537C12.7554 2.90916 12.8143 2.96144 12.8757 3.00981C12.8803 3.01308 12.8835 3.01765 12.8881 3.02092C12.9822 3.07974 13.0535 3.16405 13.1365 3.23529C13.1822 3.2745 13.2175 3.32483 13.26 3.36731C13.3816 3.48822 13.4783 3.62874 13.5724 3.76991C13.6345 3.86337 13.6829 3.96532 13.7371 4.06401C13.7561 4.09865 13.775 4.13394 13.792 4.16989C13.8253 4.23917 13.8587 4.30845 13.8907 4.37838C13.9051 4.40975 13.9142 4.44308 13.9266 4.47511C13.956 4.55027 13.9874 4.62477 14.0142 4.70124C14.0273 4.73849 14.0332 4.77836 14.0397 4.81757C14.06 4.94045 14.0887 5.06201 14.0953 5.18749C14.0979 5.23651 14.1077 5.28553 14.109 5.3352C14.1136 5.45154 14.1149 5.56852 14.1175 5.68486C14.1175 5.70512 14.1175 5.72603 14.1175 5.74695C14.1175 5.74695 14.1181 5.74695 14.1188 5.74695L14.1123 5.74303ZM6.85831 8.1292C6.86223 8.17952 6.86746 8.2305 6.87073 8.28083C6.87726 8.38148 6.91321 8.46971 6.97922 8.54618C6.99948 8.57036 7.02039 8.59389 7.04261 8.61676C7.0766 8.65075 7.10797 8.68931 7.14719 8.71545C7.22823 8.76904 7.32038 8.7978 7.41776 8.80564C7.47397 8.81022 7.53083 8.80891 7.58573 8.81675C7.66024 8.82721 7.73147 8.81414 7.8001 8.79192C7.87983 8.76577 7.95826 8.7344 8.01055 8.66251C8.01382 8.65794 8.01904 8.65532 8.02296 8.6514C8.08636 8.59585 8.14191 8.5331 8.18113 8.4586C8.20793 8.40762 8.23472 8.35533 8.24714 8.29978C8.2674 8.20763 8.2674 8.11221 8.25367 8.01809C8.24452 7.9547 8.21707 7.89718 8.18636 7.84228C8.14976 7.77562 8.12035 7.70242 8.05499 7.65602C8.03473 7.64164 8.01447 7.62791 7.99551 7.61223C7.92297 7.54949 7.83801 7.51354 7.74651 7.49066C7.68834 7.47629 7.62821 7.46714 7.56874 7.45929C7.51318 7.45145 7.46024 7.4704 7.40665 7.48086C7.35502 7.49066 7.306 7.50635 7.26091 7.53445C7.22757 7.55537 7.19424 7.57824 7.15895 7.59589C7.06157 7.64425 7.0034 7.73248 6.93804 7.81287C6.93543 7.81614 6.93347 7.82006 6.93216 7.82398C6.89164 7.92202 6.85765 8.02136 6.85962 8.13051L6.85831 8.1292Z" fill="#1F3320"/>
</svg>
